<svg xmlns="http://www.w3.org/2000/svg" xmlns:xlink="http://www.w3.org/1999/xlink" viewBox="0 0 206 40"><defs><linearGradient id="f" x1="103" x2="103" y1="15.97" y2="33.35" gradientTransform="matrix(1 0 0 -1 0 40)" gradientUnits="userSpaceOnUse"><stop offset="0" stop-color="#f3d9e8"/><stop offset=".02" stop-color="#f5cbdf"/><stop offset=".07" stop-color="#f6b3d0"/><stop offset=".13" stop-color="#f4a1bc"/><stop offset=".2" stop-color="#f494ab"/><stop offset=".28" stop-color="#f38ba1"/><stop offset=".4" stop-color="#f3869a"/><stop offset=".73" stop-color="#f28498"/></linearGradient><linearGradient id="g" x1="103" x2="103" y1="15.82" y2="34.21" gradientTransform="matrix(1 0 0 -1 0 40)" gradientUnits="userSpaceOnUse"><stop offset="0" stop-color="#f3d9e8"/><stop offset=".03" stop-color="#f9d4e4"/><stop offset=".08" stop-color="#facccd"/><stop offset=".14" stop-color="#fac6b2"/><stop offset=".2" stop-color="#fbc29c"/><stop offset=".28" stop-color="#fbbf8b"/><stop offset=".38" stop-color="#fbbb80"/><stop offset=".52" stop-color="#fbb979"/><stop offset=".9" stop-color="#fbb977"/></linearGradient><linearGradient id="h" x1="103" x2="103" y1="15.05" y2="31.87" gradientTransform="matrix(1 0 0 -1 0 40)" gradientUnits="userSpaceOnUse"><stop offset="0" stop-color="#f3d9e8"/><stop offset="0" stop-color="#f4d8e8"/><stop offset=".06" stop-color="#fbdcdd"/><stop offset=".13" stop-color="#fddfc2"/><stop offset=".2" stop-color="#ffe1ac"/><stop offset=".29" stop-color="#fde29a"/><stop offset=".4" stop-color="#fce390"/><stop offset=".56" stop-color="#fde488"/><stop offset=".98" stop-color="#fde486"/></linearGradient><linearGradient id="i" x1="103" x2="103" y1="14.04" y2="31.41" gradientTransform="matrix(1 0 0 -1 0 40)" gradientUnits="userSpaceOnUse"><stop offset="0" stop-color="#f3d9e8"/><stop offset=".03" stop-color="#f3dceb"/><stop offset=".08" stop-color="#e1e5cf"/><stop offset=".15" stop-color="#d2e5b3"/><stop offset=".23" stop-color="#c6df9a"/><stop offset=".31" stop-color="#beda87"/><stop offset=".42" stop-color="#b8d77a"/><stop offset=".58" stop-color="#b6d673"/><stop offset="1" stop-color="#b5d570"/></linearGradient><linearGradient id="j" x1="103" x2="103" y1="15.23" y2="32.26" gradientTransform="matrix(1 0 0 -1 0 40)" gradientUnits="userSpaceOnUse"><stop offset="0" stop-color="#f3d9e8"/><stop offset="1" stop-color="#a0dae6"/></linearGradient><linearGradient id="k" x1="103" x2="103" y1="14" y2="31.98" gradientTransform="matrix(1 0 0 -1 0 40)" gradientUnits="userSpaceOnUse"><stop offset="0" stop-color="#f3d9e8"/><stop offset=".12" stop-color="#f1d8e8"/><stop offset=".25" stop-color="#e8d8e9"/><stop offset=".38" stop-color="#dad6eb"/><stop offset=".52" stop-color="#bdd6ef"/><stop offset=".65" stop-color="#9ad4f3"/><stop offset=".79" stop-color="#6fcff5"/><stop offset=".93" stop-color="#50c8ef"/><stop offset="1" stop-color="#47c6ef"/></linearGradient><linearGradient id="l" x1="103" x2="103" y1="9.72" y2="32.44" gradientTransform="matrix(1 0 0 -1 0 40)" gradientUnits="userSpaceOnUse"><stop offset="0" stop-color="#f3d9e8"/><stop offset="1" stop-color="#f28498"/></linearGradient><linearGradient id="m" x1="103" x2="103" y1="10.88" y2="31.4" gradientTransform="matrix(1 0 0 -1 0 40)" gradientUnits="userSpaceOnUse"><stop offset="0" stop-color="#f3d9e8"/><stop offset="1" stop-color="#b5d570"/></linearGradient><linearGradient id="n" x1="103" x2="103" y1="12.87" y2="31.09" gradientTransform="matrix(1 0 0 -1 0 40)" gradientUnits="userSpaceOnUse"><stop offset="0" stop-color="#f3d9e8"/><stop offset="1" stop-color="#b095c6"/></linearGradient><linearGradient id="a" x1="35.27" x2="37.3" y1="29.31" y2="26.19" gradientTransform="matrix(1 0 0 -1 0 40)" gradientUnits="userSpaceOnUse"><stop offset="0" stop-color="#147a3e"/><stop offset="1" stop-color="#69b545"/></linearGradient><linearGradient xlink:href="#a" id="o" x1="-1103" x2="-1101.12" y1="2438.79" y2="2435.89" gradientTransform="matrix(.42241 -.6438 .61724 .4082 -1005.76 -1688.5)"/><linearGradient xlink:href="#a" id="p" x1="-2330.92" x2="-2329.05" y1="514.88" y2="511.99" gradientTransform="matrix(-.42241 -.6438 -.61724 .4082 -634.4 -1688.5)"/><linearGradient id="b" x1="-1830.95" x2="-1828.97" y1="24.87" y2="21.83" gradientTransform="rotate(-180 -895.03 20)" gradientUnits="userSpaceOnUse"><stop offset="0" stop-color="#69b545"/><stop offset="1" stop-color="#147a3e"/></linearGradient><linearGradient xlink:href="#b" id="q" x1="37.26" x2="36.69" y1="16.28" y2="21.99" gradientTransform="matrix(1 0 0 -1 0 40)"/><linearGradient xlink:href="#b" id="r" x1="22.26" x2="29.15" y1="24.36" y2="13.78" gradientTransform="matrix(1 0 0 -1 0 40)"/><linearGradient xlink:href="#b" id="s" x1="19.35" x2="22.46" y1="22.4" y2="17.63" gradientTransform="matrix(1 0 0 -1 0 40)"/><linearGradient xlink:href="#b" id="t" x1="25.57" x2="35.67" y1="26.39" y2="10.86" gradientTransform="matrix(1 0 0 -1 0 40)"/><linearGradient xlink:href="#b" id="u" x1="44.65" x2="47.13" y1="27.22" y2="27.22" gradientTransform="matrix(1 0 0 -1 0 40)"/><linearGradient id="c" x1="42.39" x2="44.55" y1="33.12" y2="33.12" gradientTransform="matrix(1 0 0 -1 0 40)" gradientUnits="userSpaceOnUse"><stop offset=".22" stop-color="#a5428f"/><stop offset=".97" stop-color="#e52279"/></linearGradient><linearGradient id="d" x1="45.96" x2="48.39" y1="22.31" y2="22.31" gradientTransform="matrix(1 0 0 -1 0 40)" gradientUnits="userSpaceOnUse"><stop offset="0" stop-color="#e32527"/><stop offset=".93" stop-color="#f18f20"/></linearGradient><linearGradient xlink:href="#c" id="v" x1="41.11" x2="43.16" y1="18.46" y2="18.46"/><linearGradient xlink:href="#c" id="w" x1="13.6" x2="15.56" y1="37.09" y2="37.09"/><linearGradient xlink:href="#d" id="x" x1="14.5" x2="16.01" y1="30.55" y2="30.55"/><linearGradient id="e" x1="12.87" x2="14.55" y1="19.94" y2="19.94" gradientTransform="matrix(1 0 0 -1 0 40)" gradientUnits="userSpaceOnUse"><stop offset="0" stop-color="#2d3a8b"/><stop offset=".85" stop-color="#26b5e9"/></linearGradient><linearGradient xlink:href="#c" id="y" x1="15.37" x2="17.75" y1="18.08" y2="18.08"/><linearGradient xlink:href="#e" id="z" x1="18.91" x2="20.76" y1="17.58" y2="17.58"/><linearGradient xlink:href="#c" id="A" x1="15.61" x2="18.12" y1="23.48" y2="23.48"/><linearGradient xlink:href="#d" id="B" x1="18.62" x2="20.62" y1="25.49" y2="25.49"/><linearGradient xlink:href="#d" id="C" x1="38.87" x2="41.23" y1="37.47" y2="37.47"/><linearGradient xlink:href="#c" id="D" x1="19.78" x2="21.25" y1="37.86" y2="37.86"/><linearGradient xlink:href="#d" id="E" x1="30.14" x2="32.52" y1="34.98" y2="34.98"/><linearGradient xlink:href="#c" id="F" x1="23.38" x2="25.28" y1="36.13" y2="36.13"/><linearGradient xlink:href="#e" id="G" x1="31.78" x2="34.11" y1="32.1" y2="32.1"/><linearGradient xlink:href="#b" id="H" x1="44.34" x2="46.05" y1="23.76" y2="23.76" gradientTransform="matrix(1 0 0 -1 0 40)"/><linearGradient xlink:href="#b" id="I" x1="39.86" x2="41.78" y1="31.72" y2="31.72" gradientTransform="matrix(1 0 0 -1 0 40)"/><linearGradient xlink:href="#e" id="J" x1="43.54" x2="45.72" y1="20.2" y2="20.2"/><linearGradient xlink:href="#b" id="K" x1="48.02" x2="49.91" y1="23.25" y2="23.25" gradientTransform="matrix(1 0 0 -1 0 40)"/><linearGradient xlink:href="#c" id="L" x1="49.68" x2="46.23" y1="26.77" y2="25.01"/><linearGradient xlink:href="#b" id="M" x1="25.68" x2="27.37" y1="277.63" y2="277.63" gradientTransform="scale(1 -1) rotate(6.46 2599.324 40.76)"/><linearGradient xlink:href="#d" id="N" x1="29.62" x2="32.22" y1="30.94" y2="30.94"/><linearGradient xlink:href="#c" id="O" x1="42.25" x2="43.85" y1="27.59" y2="27.59"/><linearGradient xlink:href="#e" id="P" x1="35.01" x2="36.61" y1="37.16" y2="37.16"/><linearGradient xlink:href="#b" id="Q" x1="32.62" x2="34.39" y1="37.04" y2="37.04" gradientTransform="matrix(1 0 0 -1 0 40)"/><linearGradient xlink:href="#e" id="R" x1="20.12" x2="21.89" y1="34.28" y2="34.28"/><linearGradient xlink:href="#b" id="S" x1="12.62" x2="15.05" y1="34" y2="34" gradientTransform="matrix(1 0 0 -1 0 40)"/><linearGradient xlink:href="#b" id="T" x1="11.73" x2="14" y1="29.42" y2="29.42" gradientTransform="matrix(1 0 0 -1 0 40)"/><linearGradient xlink:href="#e" id="U" x1="11.47" x2="13.78" y1="31.72" y2="31.72"/><linearGradient xlink:href="#c" id="V" x1="16.25" x2="18.47" y1="32.54" y2="32.54"/><linearGradient xlink:href="#e" id="W" x1="21.7" x2="23.27" y1="27.4" y2="27.4"/><linearGradient xlink:href="#e" id="X" x1="16.57" x2="18.66" y1="29" y2="29"/><linearGradient xlink:href="#e" id="Y" x1="12.07" x2="14.62" y1="24.89" y2="24.89"/><linearGradient xlink:href="#b" id="Z" x1="11.36" x2="14.17" y1="22.74" y2="22.74" gradientTransform="matrix(1 0 0 -1 0 40)"/><linearGradient xlink:href="#d" id="aa" x1="14.94" x2="17.08" y1="21.38" y2="21.38"/><linearGradient xlink:href="#b" id="ab" x1="37.32" x2="38.9" y1="35.37" y2="35.37" gradientTransform="matrix(1 0 0 -1 0 40)"/><linearGradient xlink:href="#e" id="ac" x1="36.43" x2="37.69" y1="32.68" y2="32.68"/><linearGradient xlink:href="#d" id="ad" x1="40.1" x2="42.31" y1="34.39" y2="34.39"/><linearGradient xlink:href="#e" id="ae" x1="26.7" x2="28.34" y1="33.99" y2="33.99"/><linearGradient xlink:href="#e" id="af" x1="24.25" x2="25.78" y1="32.19" y2="32.19"/><linearGradient xlink:href="#d" id="ag" x1="16.75" x2="18.83" y1="38.98" y2="38.98"/><linearGradient xlink:href="#d" id="ah" x1="16.04" x2="18.12" y1="35.01" y2="35.01"/><linearGradient xlink:href="#e" id="ai" x1="22.48" x2="23.84" y1="38.4" y2="38.4"/><linearGradient xlink:href="#b" id="aj" x1="21.01" x2="22.64" y1="30.92" y2="30.92" gradientTransform="matrix(1 0 0 -1 0 40)"/><linearGradient xlink:href="#b" id="ak" x1="33.22" x2="34.79" y1="34.12" y2="34.12" gradientTransform="matrix(1 0 0 -1 0 40)"/><linearGradient xlink:href="#b" id="al" x1="40.2" x2="41.44" y1="27.04" y2="27.04" gradientTransform="matrix(1 0 0 -1 0 40)"/><linearGradient xlink:href="#c" id="am" x1="38.5" x2="40.11" y1="29.45" y2="29.45"/><linearGradient xlink:href="#e" id="an" x1="41.53" x2="43.82" y1="29.49" y2="31.84"/></defs><path d="M54.48 24.72C61.13 8.39 88.24-1.56 115.04 2.49c17.98 2.72 32.02 11.27 36.48 22.22H153C146.35 7.89 118.57-2.46 90.96 1.59 72.18 4.34 57.52 13.27 53 24.71h1.48Z" style="fill:url(#f)"/><path d="M56.05 24.72C62.7 8.92 89.11-.6 115.04 3.45c17.14 2.68 30.52 10.83 34.91 21.27h1.57C144.87 8.39 117.76-1.56 90.96 2.49 72.98 5.21 58.94 13.76 54.48 24.71h1.57Z" style="fill:url(#g)"/><path d="M58.01 24.72C64.66 9.58 90.21.6 115.06 4.65c16.07 2.62 28.63 10.27 32.94 20.06h1.95C143.3 8.92 116.89-.6 90.96 3.45 73.82 6.13 60.44 14.28 56.05 24.72H58Z" style="fill:url(#h)"/><path d="M59.85 24.72c6.65-14.52 31.36-23 55.19-18.95 15.1 2.57 26.89 9.75 31.11 18.95h1.84C141.33 9.58 115.79.6 90.94 4.66 74.87 7.28 62.31 14.93 58 24.72h1.84Z" style="fill:url(#i)"/><path d="M61.49 24.72c6.61-13.97 30.55-22.02 53.48-18 14.27 2.51 25.43 9.3 29.54 18h1.64c-6.65-14.52-31.36-23-55.19-18.95-15.1 2.57-26.89 9.75-31.11 18.95h1.64Z" style="fill:url(#j)"/><path d="M63.2 24.72c6.65-13.39 29.85-20.96 51.83-16.91 13.32 2.45 23.74 8.8 27.76 16.91h1.71c-6.61-13.97-30.55-22.02-53.48-18-14.27 2.51-25.43 9.3-29.54 18h1.71Z" style="fill:url(#k)"/><path d="M64.68 24.72C71.34 11.83 93.9 4.67 115.07 8.73c12.51 2.4 22.31 8.37 26.26 15.99h1.47c-6.65-13.39-29.85-20.96-51.83-16.91-13.32 2.45-23.74 8.8-27.76 16.91h1.47Z" style="fill:url(#l)"/><path d="M64.68 24.72C71.34 11.83 93.9 4.67 115.07 8.73c12.51 2.4 22.31 8.37 26.26 15.99h1.47c-6.65-13.39-29.85-20.96-51.83-16.91-13.32 2.45-23.74 8.8-27.76 16.91h1.47Z" style="fill:url(#m)"/><path d="M64.68 24.72C71.34 11.83 93.9 4.67 115.07 8.73c12.51 2.4 22.31 8.37 26.26 15.99h1.47c-6.65-13.39-29.85-20.96-51.83-16.91-13.32 2.45-23.74 8.8-27.76 16.91h1.47Z" style="fill:url(#n)"/><path d="m9.24 36.59-2.25.85c-.44.13-.75.51-.81.96-.06.3.03.61.25.82.28.28.68.45.99.16.35-.4.66-.83.93-1.29.33-.48.63-.99.89-1.5ZM19.03 32.25l2.34.39c.42.11.86-.08 1.08-.45.17-.26.21-.58.1-.86-.15-.39-.44-.73-.84-.64-.46.18-.9.41-1.32.68-.48.26-.94.56-1.37.89ZM12.47 34.25l-9.56-4.86c-.49-.25-.72-.82-.55-1.34v-.09c.14-.41.58-.63.99-.49.08.03.15.07.22.12l8.9 6.67ZM13.27 33.95l-5.58-9.7c-.26-.46-.15-1.04.26-1.37a.729.729 0 0 1 1.18.33l4.14 10.74ZM13.41 33.46l-1.17-12.19a.986.986 0 0 1 .82-1.13c.06-.01.13-.01.19-.01.45-.06.89.55.87 1.08l-.71 12.25ZM15.8 32.6l7.88-6.6c.41-.33.95-.14 1.25.57.21.49.07 1.06-.36 1.38L15.8 32.6ZM7.31 28.53l-3.32-2.91a.565.565 0 0 1-.02-.79l.02-.02a.474.474 0 0 1 .73.06l2.6 3.66ZM12.09 32.91l-4.65-5.57a.586.586 0 0 1 0-.73c.09-.13.26-.16.38-.07.03.02.05.05.07.07l4.2 6.29ZM14.12 32.29l1.87-7.49a.43.43 0 0 1 .48-.38c.02 0 .04 0 .06.01.19.08.27.29.2.48l-2.61 7.38ZM11.32 35.39l-6.45 1.82a.435.435 0 0 1-.53-.3c0-.02 0-.04-.01-.06-.06-.18.05-.38.23-.44h.02l6.73-1.02ZM3.97 31.57.6 31.25a.57.57 0 0 1-.51-.62c0-.05.02-.1.04-.15v-.06c.09-.27.38-.4.65-.31.03 0 .05.02.08.04l3.11 1.42ZM12.74 33.99l-4.36-3.05a.823.823 0 0 1-.21-1.15.27.27 0 0 1 .07-.08v-.04c.2-.24.56-.27.8-.07.02.02.05.04.07.07l3.64 4.32ZM13.05 32.91l-1.85-5.15a.735.735 0 0 1 .62-1.04c.28-.04.54.16.58.44l.65 5.73ZM13.69 33.46l.15-5.28c.02-.2.12-.39.29-.51.49-.32.99.2.84.81l-1.28 4.99ZM11.63 34.78l-6.31.83c-.65.08-1.25-.38-1.34-1.03-.02-.16 0-.32.03-.48v-.13c.16-.53.7-.85 1.24-.73l6.36 1.53ZM13.9 33.67l3.29-7.83c.26-.61.97-.9 1.58-.64.21.09.38.23.51.41.34.48.32 1.12-.05 1.58l-5.33 6.48ZM12.24 34.37l-2.73-.38c-.23 0-.42-.18-.43-.42 0-.09.03-.19.09-.26a.36.36 0 0 1 .48-.09l2.59 1.15Z" style="fill:#f9ec23;stroke:#000;stroke-miterlimit:10;stroke-width:.18px"/><path d="M15.66 38.36c-.37.63-2.09.79-2.64.78-1.26-.05-2.31-1.25-2.65-2.62-.9-3.58 3.52-6.13 5.75-7.15 3.89-1.77 8.24-1.5 12.23-.35 3.27.94 6.24 2.77 9.36 4.19 2.48 1.13 5.35 2.62 8.07 2.61.45.03.9-.09 1.27-.36 0 0-1.11 1.1-5.37 1.58-4.25.48-11.48-4.94-16.62-3.98 0 0-6.8.88-9.39 5.31Z" style="fill:#f69220"/><path d="M36.5 12.76c.14.05.29.07.44.06.34-.11.52-.47.41-.81-.02-.05-.04-.1-.07-.15-.29-.36-.78-.47-1.2-.28-.8.35-.65 1.5 0 1.94.41.23.89.29 1.34.16.39-.12.7-.4.87-.77l.07-.17c.29-.96-.25-1.97-1.22-2.26-.08-.02-.16-.04-.24-.05-.12-.03-.24-.04-.36-.05-.37-.02-.74.06-1.08.23-.29.15-.54.37-.73.63-.37.51-.53 1.13-.46 1.75.05.11.12.22.2.31-.04-.37-.01-.74.09-1.1.12-.36.35-.68.64-.93.44-.39 1.04-.53 1.61-.37.48.14.85.51.98 1v.21c.05.29-.04.59-.23.82-.35.3-.85.35-1.25.12a.73.73 0 0 1-.23-.97.63.63 0 0 1 .89-.14c.02.01.03.02.04.04.16.13.2.36.11.55-.13.22-.39.33-.64.27Z" style="fill:url(#a)"/><path d="M42.63 16.47c.02-.21.2-.37.41-.36.21.02.38.17.43.37.17.65-.73.98-1.16.59a.898.898 0 0 1-.26-.9c.15-.58.73-.92 1.31-.78.05.01.1.03.14.05.67.28.99 1.06.71 1.73-.02.04-.04.09-.06.13-.41.69-1.25.99-2.01.73l-.18-.02c-.17-.07-.32-.16-.47-.27.75.44 1.71.24 2.23-.46v-.06c.1-.18.15-.39.13-.6a.94.94 0 0 0-.43-.73.783.783 0 0 0-1.06.3c-.02.03-.03.07-.05.1-.07.28.1.56.38.63.02 0 .05 0 .07.01.2.02.38-.09.47-.27a.374.374 0 0 0-.2-.47.345.345 0 0 0-.41.26Z" style="fill:url(#o)"/><path d="M26.66 11.42a.396.396 0 0 0-.41-.36c-.21.03-.37.17-.43.37-.16.65.73.98 1.16.59.25-.23.35-.58.26-.9-.15-.58-.73-.92-1.31-.78-.05.01-.1.03-.14.05a1.32 1.32 0 0 0-.7 1.74l.06.12c.41.69 1.25.99 2.01.73l.16-.06c.17-.07.32-.16.47-.27-.74.45-1.7.26-2.23-.42v-.06a.96.96 0 0 1-.12-.6c.01-.3.18-.57.43-.73.38-.21.85-.07 1.06.3.02.03.03.07.05.1.07.28-.1.56-.38.63-.02 0-.05 0-.07.01-.2.02-.38-.09-.47-.27-.07-.18.01-.39.19-.47.19-.05.38.06.43.24v.02Z" style="fill:url(#p)"/><path d="M39.63 16.88c-.15.1-.33.1-.48 0a.531.531 0 0 1-.22-.44c.05-.4.42-.68.82-.63h.01c.4.08.68.43.68.84-.04.4-.29.75-.67.89-1.15.47-1.93-.65-1.63-1.65.15-.45.5-.81.95-.99l.11-.04.13-.04.17-.04c.37-.05.74 0 1.08.15.42.21.75.55.95.98.29.81.12 1.71-.44 2.36-.58.08-1.17.13-1.76.15a1.73 1.73 0 0 0 1.59-1.18c.18-.46.14-.97-.12-1.4-.23-.42-.69-.68-1.17-.66-.51.02-.95.36-1.1.84-.07.24-.05.5.06.73.07.16.19.29.33.38.22.13.49.15.73.05.24-.1.39-.33.4-.59 0-.26-.2-.49-.46-.53-.26-.03-.5.15-.53.41v.01c.01.23.21.4.44.39.04 0 .08-.01.12-.03Z" style="fill:url(#b)"/><path d="M39.88 18.37c-2.02.17-3.96.87-5.63 2.03-.15.11-.3.23-.44.35 0 0-.73.73-1.12 1.1 0 0 2.41-2.13 4.23-2.38.7-.3 1.48-.4 2.23-.28.24.08.47.2.66.36a.948.948 0 0 1-.07 1.46.72.72 0 0 1-.99-.26v-.02c-.1-.28-.03-.59.2-.79 0 0-.07 0-.09.04-.31.17-.45.53-.35.86.13.37.46.64.85.68h.12c.1 0 .2-.02.31-.04.65-.2 1.02-.88.82-1.53-.01-.04-.03-.08-.04-.12-.14-.3-.39-.54-.69-.66-.13-.05-.26-.09-.4-.12l-.3-.02c.72-.01 1.42-.28 1.96-.76-.29.06-.59.08-.89.07l-.34.04Z" style="fill:url(#q)"/><path d="M23.88 16.43c-.13.05-.24.12-.33.22-.2.14-.31.38-.3.62.05.35.29.64.63.74.47.18 1-.01 1.25-.44.27-.54.13-1.2-.34-1.58-.79-.5-1.83-.27-2.33.51-.01.02-.02.04-.03.05-.33.7-.27 1.53.15 2.18.4.54.92.98 1.53 1.26.51.27 1.05.47 1.56.73.53.27 1.05.58 1.53.92.12.09.24.17.35.27.61.52 1.04 1.21 1.25 1.98.06.26.1.53.12.81.06.41.06.83 0 1.24l-.12.48c.06-.41.06-.84 0-1.25a3.777 3.777 0 0 0-1.67-2.91c-.6-.36-2.05-.52-2.44.23-.13.26-.06.58.17.76.14.11.33.15.51.1.18-.06.29-.23.28-.42a.471.471 0 0 0-.17-.43l.13.08a.6.6 0 0 1 .2.27c.06.18.05.37-.05.53-.12.18-.31.3-.53.31h-.26c-.55-.09-.92-.62-.83-1.17.05-.28.22-.53.46-.69.55-.25 1.17-.27 1.73-.07-.77-.48-1.6-.87-2.46-1.17a4.1 4.1 0 0 1-2.02-1.63c-.24-.47-.36-1-.34-1.53.01-.65.27-1.27.73-1.74.47-.47 1.13-.7 1.8-.62.8.1 1.45.7 1.61 1.5.03.15.04.31.04.47-.06.75-.7 1.32-1.45 1.28-.16 0-.31-.04-.46-.09-.33-.13-.56-.41-.63-.76-.05-.23 0-.47.12-.67.15-.2.36-.34.6-.39Z" style="fill:url(#r)"/><path d="M19.23 19.81c-.09 0-.17-.03-.24-.07a.364.364 0 0 1-.17-.23.447.447 0 0 1 0-.28c.07-.12.19-.21.33-.23.16-.03.33.03.45.14.23.25.2.64-.05.86l-.01.01c-.33.21-.76.17-1.05-.09a.865.865 0 0 1-.19-.66.865.865 0 0 1 .67-.8c1.08-.33 1.8.64 2.33 1.38.12.17.25.34.37.52.26.46.68.81 1.18.99.53.13 1.09.04 1.55-.25-.24.11-.51.17-.78.16-.28.02-.55-.04-.8-.15-.46-.29-.82-.7-1.05-1.18-.53-.81-1.08-1.86-2.18-2h-.28c-.55 0-1.05.32-1.29.81-.08.23-.11.48-.08.73.06.45.36.83.78 1 .43.16.91.03 1.21-.33.21-.3.21-.69 0-.99a1.26 1.26 0 0 0-.2-.2.691.691 0 0 0-.86.13c-.17.17-.17.44 0 .61.11.08.24.13.38.14Z" style="fill:url(#s)"/><path d="M29.16 16.26c-.47-.47-.47-1.24 0-1.71.07-.07.15-.13.24-.18a1.53 1.53 0 0 1 1.62-.09 1.697 1.697 0 0 1 .64 2.46c-.16.24-.36.44-.6.61 0 0-1.8 1.29-3.4-.73 0 0-1.45-2.11.95-3.94 1.61-1.15 3.83-.9 5.13.6.83.89 1.29 2.06 1.27 3.28a5.343 5.343 0 0 1-2.05 4.17c-.39.31-.81.57-1.18.9-.26.24-.52.49-.73.76-.67.72-1.24 1.53-1.69 2.41-.34.69-.59 1.42-.73 2.18 0 0-.52 3.63 0 5.6h1.36l1.33-.55a9.148 9.148 0 0 1-1.25-5.53s-.16-2.4 2.61-4.61c.68-.53 1.28-1.16 1.77-1.88.48-.7.82-1.49.98-2.33.17-.94.15-1.9-.09-2.83-.1-.38-.25-.74-.44-1.08a5.258 5.258 0 0 0-2.32-2.18c-.24-.11-.48-.19-.73-.26-1.67-.34-3.4.19-4.58 1.42a3.755 3.755 0 0 0-.33 4.19c.7 1.18 2.07 1.8 3.42 1.55.95-.22 1.72-.89 2.08-1.79a2.094 2.094 0 0 0-3.31-2.39c-.54.43-.63 1.21-.2 1.75.06.08.13.15.21.21Z" style="fill:url(#t)"/><path d="M15.32 38.5c1.34-2.02 3.3-3.55 5.59-4.36a13.95 13.95 0 0 1 7.2-.87c2.52.5 4.96 1.31 7.27 2.41l.45.2s3.79 1.74 6.49 1.12c0 0 .79-.15 1.45-.29a41.27 41.27 0 0 1-4.08-1.17c-2.97-1.13-5.82-2.75-8.88-3.63a19.935 19.935 0 0 0-12.36.36c-1.52.57-3.48 1.98-3.77 3.98-.2.85-.02 1.74.47 2.46a.82.82 0 0 0 .17-.2Z" style="fill:#016937"/><path d="M48.13 36.9c-1.46.13-2.92.07-4.36-.17-3.64-.94-7.27-2.07-10.91-2.77-3.99-.76-7.78-1.58-11.93.2-2.29.81-4.25 2.34-5.59 4.36-.05.08-.12.14-.19.2 1.31 1.73 4.79 1.33 6.41.95.64-.15 1.28-.33 1.91-.54 2.71-.85 5.38-2.01 8.16-2.18 2.95-.15 5.9.13 8.77.81 2.18.47 4.25 1.28 6.47.84 1.9-.35 3.46-1.68 4.12-3.5-.68.95-1.71 1.6-2.87 1.8Z" style="fill:#22b473"/><path d="M44.76 12.26c-.12.18-.12.42 0 .6.11.1.27.14.41.12.32-.21.67-.37 1.05-.47a5.7 5.7 0 0 0-1.03.56c-.04 0-.09.17-.1.21-.03.09-.03.18 0 .27.11.34.64.3.95 0 .2-.22.38-.46.52-.73.13-.19.38-.49.63-.52-.21 0-.42-.07-.58-.2-.25-.22-.57-.34-.91-.34-.38 0-.73.18-.94.49Z" style="fill:url(#u)"/><path d="M42.53 6.37c-.13.14-.16.34-.08.52.09.09.21.14.34.13.3-.15.62-.26.95-.31-.33.1-.64.23-.95.39-.04 0-.09.14-.11.17-.04.07-.06.15-.05.23.07.3.52.31.81.1.2-.17.37-.38.51-.6.14-.15.37-.39.6-.39a.717.717 0 0 1-.47-.24 1.09 1.09 0 0 0-.73-.36.987.987 0 0 0-.82.36Z" style="fill:url(#c)"/><path d="M45.99 17.96a.609.609 0 0 1 .13-.63c.14-.07.3-.07.44 0 0 0 .66.73.94.78-.32-.25-.62-.53-.89-.84a.696.696 0 0 1-.05-.25c-.01-.1 0-.2.04-.28.2-.31.73-.11.97.26.14.28.25.58.31.89.09.24.25.62.5.73a.812.812 0 0 0-.63.04c-.3.14-.64.17-.96.09-.38-.12-.67-.42-.79-.79Z" style="fill:url(#d)"/><path d="M42.79 20.49a.621.621 0 0 0-.61-.14c-.12.08-.19.22-.2.36.15.34.25.71.27 1.08-.09-.37-.21-.73-.37-1.08 0-.04-.16-.12-.2-.14a.503.503 0 0 0-.27-.08c-.36.04-.42.55-.2.9.19.24.42.45.67.63.17.16.44.45.4.73.04-.2.15-.39.32-.51.25-.18.43-.43.51-.73.09-.38-.03-.77-.32-1.03Z" style="fill:url(#v)"/><path d="M14.68 3.64s.36 0 .46-.22a.32.32 0 0 0-.12-.3c-.3-.12-.58-.28-.83-.49.29.17.58.32.89.44.07.01.14.01.2 0 .08 0 .15-.04.2-.09.2-.2-.09-.51-.43-.6-.26-.03-.53-.03-.79 0-.24.01-.48-.06-.67-.2.1.12.15.28.12.44-.03.24.02.48.16.68.2.22.49.35.79.34Z" style="fill:url(#w)"/><path d="M16 9.62a.365.365 0 0 0-.17-.37.365.365 0 0 0-.29 0s-.34.45-.52.49c.18-.16.34-.35.48-.55v-.15c0-.06-.02-.12-.07-.17-.17-.18-.49-.04-.6.18-.06.18-.09.37-.09.56 0 .15-.09.38-.24.44.14-.05.29-.05.42 0 .21.07.44.07.65 0 .21-.06.37-.23.43-.44Z" style="fill:url(#x)"/><path d="M14.42 20.56a.37.37 0 0 0 .08-.41.367.367 0 0 0-.25-.15c-.23.09-.48.13-.73.13.25-.04.49-.1.73-.2a.38.38 0 0 0 .09-.13c.04-.05.05-.12.04-.18-.04-.25-.39-.31-.63-.18s-.28.28-.42.42-.31.28-.48.25c.15.03.28.12.36.24.13.18.32.32.54.39.24.06.49 0 .66-.17Z" style="fill:url(#e)"/><path d="M17.75 22.07a.605.605 0 0 0-.26-.61.538.538 0 0 0-.46.06s-.55.78-.83.87c.27-.3.52-.62.73-.96.01-.08.01-.17 0-.25 0-.1-.05-.19-.11-.27-.21-.29-.72 0-.94.36-.1.31-.15.62-.16.94-.04.25-.14.65-.38.76.22-.08.45-.08.67 0 .33.11.69.11 1.02 0 .39-.14.67-.49.72-.9Z" style="fill:url(#y)"/><path d="M20.52 21.52a.563.563 0 0 0-.55-.16c-.11.07-.19.18-.2.31.11.32.16.65.15.99a4.21 4.21 0 0 0-.24-.99c0-.04-.14-.12-.17-.14a.407.407 0 0 0-.24-.08c-.34 0-.43.47-.27.79.16.22.35.43.56.6.15.15.36.43.31.64.05-.18.17-.34.33-.44.24-.15.43-.38.52-.65.1-.31.02-.65-.2-.89Z" style="fill:url(#z)"/><path d="M18.06 16.09c.1.2.08.45-.05.63a.52.52 0 0 1-.44.04s-.54-.51-.81-.54c.28.18.55.4.79.63.04.08.06.16.08.24.03.09.03.19 0 .28-.15.33-.69.18-.97-.15-.22-.28-.4-.58-.54-.9-.11-.23-.21-.57-.47-.63.24.06.42-.07.62-.11.3-.09.62-.12.94-.09.37.04.69.26.87.59Z" style="fill:url(#A)"/><path d="M20.39 15.53c-.15.18-.39.27-.62.23a.47.47 0 0 1-.22-.37c.12-.3.17-.62.15-.94-.05.33-.14.64-.26.95 0 .05-.15.15-.18.17-.08.07-.17.1-.28.11-.37 0-.47-.52-.27-.92.17-.31.37-.59.61-.85.16-.2.44-.43.39-.68.04.23.25.33.36.49.27.39.39.44.48.78.13.35.06.73-.17 1.02Z" style="fill:url(#B)"/><path d="M38.91 2.21c-.08.2-.04.44.11.6.14.06.29.06.43 0 0 0 .65-.64.92-.68-.32.23-.61.48-.87.77 0 0-.05.18-.06.23-.01.09 0 .19.04.27.18.31.68.15.93-.19.15-.26.26-.55.33-.84.08-.22.25-.57.49-.64-.21.06-.43.04-.63-.06-.28-.15-.61-.19-.92-.14-.35.09-.64.34-.77.68Z" style="fill:url(#C)"/><path d="M19.87 2.74s.14.31.41.3c.11-.03.19-.12.23-.23-.02-.32 0-.63.09-.94-.03.32-.03.65 0 .97 0 .04.08.15.1.17.04.06.1.11.17.14.27.09.44-.3.38-.64-.07-.25-.18-.5-.31-.73a.94.94 0 0 1-.11-.68c-.07.15-.2.26-.36.31-.24.07-.44.22-.56.44-.16.27-.17.6-.04.89Z" style="fill:url(#D)"/><path d="M30.9 6.21c.24.1.52.07.73-.09a.51.51 0 0 0 0-.48s-.73-.73-.73-1.01c.24.36.52.7.84 1.01.08.04.17.06.25.07.1.03.21.03.31 0 .36-.18.2-.73-.17-1.01-.3-.17-.62-.3-.96-.39-.25-.1-.64-.3-.73-.56.05.22.01.45-.11.65-.18.29-.26.64-.21.98.1.39.39.7.76.83Z" style="fill:url(#E)"/><path d="M23.62 4.79c.13.17.35.24.56.2.12-.07.2-.18.23-.32-.11-.34-.15-.69-.13-1.05.04.36.12.71.23 1.05.04.06.1.11.17.15.07.06.16.1.25.1.34 0 .45-.47.29-.82-.15-.24-.34-.45-.55-.64-.15-.17-.36-.47-.3-.73-.06.19-.19.35-.36.44-.25.15-.45.37-.56.65-.11.33-.04.7.19.96Z" style="fill:url(#F)"/><path d="M33.14 8.82s.41 0 .52-.33a.472.472 0 0 0-.15-.39c-.36-.12-.7-.3-1-.53.34.19.7.34 1.07.46h.23c.11-.03.2-.11.25-.2.22-.28-.13-.65-.54-.73-.31-.02-.62 0-.92.05-.24 0-.64 0-.8-.18.13.15.19.36.17.56-.02.31.06.61.23.86.22.29.57.45.94.43Z" style="fill:url(#G)"/><path d="M44.37 15.88a.34.34 0 0 0 0 .31c.06.07.15.1.25.09.18-.1.37-.16.57-.18-.2.07-.39.15-.57.25 0 0-.07.1-.09.12-.03.05-.05.11-.04.17 0 .23.44.28.67.12.15-.13.29-.28.41-.44.11-.12.3-.3.46-.29a.98.98 0 0 1-.52-.15.865.865 0 0 0-.52-.26.741.741 0 0 0-.61.25Z" style="fill:url(#H)"/><path d="M39.88 8c-.02.12.01.24.09.33.08.06.19.08.29.06.18-.15.39-.26.61-.32-.21.11-.41.24-.6.39-.04.05-.06.1-.08.16a.34.34 0 0 0 0 .2c.07.24.52.21.73 0 .16-.18.29-.37.39-.58.1-.15.28-.39.47-.41-.2.04-.42.02-.61-.05-.18-.13-.4-.2-.63-.18-.28.03-.52.18-.68.41Z" style="fill:url(#I)"/><path d="M43.51 19.39s-.14 1.04 2.18 1.24c.09-.83-.51-1.57-1.34-1.65-.2-.02-.41 0-.61.06.38.21.73.46 1.04.77l-1.27-.59v.17Z" style="fill:url(#J)"/><path d="M48.03 16.55s0 .85 1.88.81c0-.68-.57-1.23-1.25-1.22-.17 0-.33.04-.48.1.33.13.64.31.92.53l-1.08-.37v.15Z" style="fill:url(#K)"/><path d="M46.2 15.35s1.36.81 2.65-1.45c0 0-2.18-1.28-2.91 1 .45-.26.94-.46 1.45-.58l-1.4.92.21.12Z" style="fill:url(#L)"/><path d="M17.02 14.37s.66-1.06-1.45-2.18c0 0-1.05 1.69 1.05 2.33a4.38 4.38 0 0 1-.6-1.18l.89 1.14.12-.12Z" style="fill:url(#M)"/><path d="M32.22 9.57s.05-1.54-2.6-1.5c0 0-.08 2.43 2.33 1.93-.46-.25-.88-.57-1.25-.94l1.52.73v-.21Z" style="fill:url(#N)"/><path d="M42.88 13.64s1.45-.44.8-2.51c-.86.07-1.5.83-1.42 1.69.02.23.09.46.21.66.12-.44.32-.86.57-1.24l-.33 1.45.18-.05Z" style="fill:url(#O)"/><path d="M36.28 4.06s1.05-1.08-.57-2.57a1.541 1.541 0 0 0 .13 2.63c-.12-.45-.16-.91-.14-1.37l.44 1.45.14-.14Z" style="fill:url(#P)"/><path d="M34.28 4.02s.67-1.34-1.34-2.29c-.52.67-.41 1.64.26 2.16.19.15.42.26.67.3-.24-.39-.43-.81-.55-1.25l.86 1.25.09-.17Z" style="fill:url(#Q)"/><path d="M21.77 6.78s.73-1.32-1.3-2.3a1.542 1.542 0 0 0 .89 2.48c-.24-.39-.42-.81-.52-1.26l.85 1.24.08-.15Z" style="fill:url(#R)"/><path d="M15.04 6.37s-.2-1.45-2.41-1.2c-.05.88.63 1.63 1.51 1.67.23.01.46-.03.68-.11-.42-.18-.82-.43-1.17-.73l1.41.57v-.21Z" style="fill:url(#S)"/><path d="M13.89 10.18s-.92-.79-2.16.56a1.363 1.363 0 0 0 2.23-.2c-.37.11-.76.16-1.14.15l1.19-.39-.11-.12Z" style="fill:url(#T)"/><path d="M13.69 8.13s-.73-1-2.23 0c.33.67 1.15.94 1.82.6.14-.07.26-.16.37-.27-.39.01-.77-.03-1.15-.12l1.26-.1-.06-.11Z" style="fill:url(#U)"/><path d="M18.35 7s-1.03-.73-2.1.73c.54.52 1.4.51 1.92-.03.11-.11.19-.24.26-.37-.36.14-.74.22-1.13.25l1.16-.48-.12-.1Z" style="fill:url(#V)"/><path d="M23.24 13.34s.36-1.17-1.4-1.69a1.27 1.27 0 0 0 1.09 1.88c-.25-.29-.45-.61-.61-.95l.83.89.09-.13Z" style="fill:url(#W)"/><path d="M18.51 10.36s-1.14-.53-1.91 1.1c.61.44 1.45.3 1.89-.3.09-.13.16-.27.21-.42-.33.19-.69.34-1.06.44l1.04-.68-.17-.13Z" style="fill:url(#X)"/><path d="M14.6 15.37s-.34-1.45-2.52-.97c.04.89.79 1.57 1.68 1.53.23-.01.46-.07.67-.18-.44-.15-.86-.37-1.24-.64l1.45.44-.04-.17Z" style="fill:url(#Y)"/><path d="M14.08 17.01s-.94-1.18-2.72.12c.43.8 1.42 1.1 2.22.68.18-.1.34-.23.48-.38-.47.04-.94 0-1.4-.09l1.52-.19-.09-.15Z" style="fill:url(#Z)"/><path d="M17.01 18.42s-.73-.9-2.07.1c.32.61 1.08.84 1.69.52.14-.07.26-.17.37-.29-.36.03-.72 0-1.07-.07l1.16-.15-.07-.12Z" style="fill:url(#aa)"/><path d="M37.59 5.49s1.23 0 1.3-1.69a1.286 1.286 0 0 0-1.57 1.45c.22-.3.48-.56.77-.78l-.65 1 .15.02Z" style="fill:url(#ab)"/><path d="M37.35 8.32s.92-.79-.28-2.08c-.6.32-.82 1.07-.5 1.67.09.17.23.32.39.43-.05-.36-.05-.72 0-1.08l.25 1.16.13-.09Z" style="fill:url(#ac)"/><path d="M40.26 6.25s1.21.55 2.05-1.14a1.453 1.453 0 0 0-2.18.8c.35-.21.73-.36 1.12-.47l-1.1.73.11.08Z" style="fill:url(#ad)"/><path d="M28.31 6.82s.4-1.24-1.45-1.8a1.345 1.345 0 0 0 1.13 2c-.26-.3-.47-.64-.63-1l.89.94.07-.14Z" style="fill:url(#ae)"/><path d="M25.21 9.05s1.26-.81.04-2.58c-.78.3-1.17 1.19-.86 1.97.09.22.22.42.4.58-.01-.45.05-.89.17-1.32l.09 1.45.16-.09Z" style="fill:url(#af)"/><path d="M18.82 1.69S18.99.24 16.8 0c-.27.81.18 1.69.99 1.95.23.08.48.1.72.06a4.55 4.55 0 0 1-.93-.98l1.21.83.04-.17Z" style="fill:url(#ag)"/><path d="M18.12 5.69s.16-1.45-2.03-1.69c0 0-.5 1.96 1.72 1.98-.36-.28-.68-.61-.94-.98l1.19.86.07-.17Z" style="fill:url(#ah)"/><path d="M22.84 2.51s1.19-.15.97-1.82c-.68-.06-1.27.44-1.33 1.12-.02.18 0 .35.07.52.16-.32.36-.61.6-.87l-.47 1.05h.15Z" style="fill:url(#ai)"/><path d="M22.63 9.64s.15-1.15-1.58-1.37c-.21.64.13 1.34.78 1.55.19.06.39.08.59.05-.28-.23-.53-.5-.73-.8l.95.73v-.16Z" style="fill:url(#aj)"/><path d="M34.71 6.76s.52-1.18-1.26-1.93a1.334 1.334 0 0 0 .92 2.09c-.23-.33-.4-.68-.52-1.06l.79 1.03.07-.14Z" style="fill:url(#ak)"/><path d="M41.33 13.76s.56-.92-.82-1.72a1.1 1.1 0 0 0 .07 1.57c.13.12.29.21.46.25-.16-.3-.27-.62-.33-.95l.54.93.09-.09Z" style="fill:url(#al)"/><path d="M38.71 11.24s1.08.2 1.4-1.32c-.6-.24-1.28.05-1.52.65-.06.14-.08.28-.08.43.24-.24.51-.44.81-.6l-.73.8.12.04Z" style="fill:url(#am)"/><path d="M41.49 9.65s.28-1.45 2.47-1.1A1.6 1.6 0 0 1 41.71 10c.43-.18.84-.43 1.2-.73l-1.45.51.04-.13Z" style="fill:url(#an)"/><path d="M58.79 38.4c-.22-.23-.5-.5-.84-.82l-1.08-.91c-.37-.3-.69-.57-1.06-.82-.25-.19-.52-.36-.8-.51v2.52c0 .19.03.38.06.56l-3.69-.15c.13-.4.22-.81.27-1.22.08-.58.14-1.35.17-2.29s0-2.06 0-3.34-.12-2.76-.27-4.42l3.55-.11c-.04.17-.05.34-.05.52v2.22c.31-.12.61-.27.89-.44.34-.2.69-.44 1.08-.71s.76-.56 1.14-.87c.35-.29.69-.6 1.01-.93l2.49 2.29c-.36.35-.74.68-1.16.97-.46.33-.93.63-1.44.96s-1.01.63-1.51.89l-1.44.8c.47.27.95.56 1.46.88l1.5.95c.48.31.94.6 1.37.85.43.27.8.47 1.1.63l-2.75 2.47Z" style="fill:#ec2024;stroke:#000;stroke-miterlimit:10;stroke-width:.62px"/><path d="M62.35 37.93c.01-.12.04-.24.08-.36.03-.13.07-.31.1-.54s.08-.5.1-.83.05-.75.05-1.26 0-1.09-.05-1.79-.09-1.51-.17-2.45l3.56-.16c-.11.56-.19 1.13-.23 1.71-.04.63-.06 1.26-.04 1.96s.02 1.33.12 1.97c.07.58.19 1.16.37 1.73l-3.89.04Zm.08-9.42c-.01-.32.07-.64.25-.91.16-.23.38-.42.64-.55.52-.25 1.15-.25 1.67 0 .27.13.49.32.64.55.18.27.27.59.25.91.01.31-.07.62-.25.88-.16.23-.38.41-.64.54-.53.24-1.14.24-1.67 0-.26-.12-.49-.31-.64-.54a1.42 1.42 0 0 1-.28-.88h.03ZM74.9 38.22c0-.06 0-.13.03-.22s0-.18 0-.27v-.28c0-.08.02-.15.04-.23-.36.28-.77.49-1.22.63-.49.15-1 .21-1.51.19a6.8 6.8 0 0 1-2.45-.43c-.65-.24-1.24-.61-1.72-1.08-.42-.43-.74-.94-.93-1.49a4.33 4.33 0 0 1 .16-3.42c.25-.56.63-1.07 1.1-1.49.51-.45 1.12-.81 1.78-1.05.78-.28 1.61-.42 2.44-.4a4.613 4.613 0 0 1 1.54.29c.22.07.43.16.63.27.14.07.28.16.41.25 0-.04-.01-.16-.04-.38 0-.21-.05-.44-.08-.69s-.05-.47-.08-.68-.04-.33-.04-.39l3.58-.16c-.07.44-.12.89-.15 1.34-.04.57-.08 1.19-.1 1.9s-.04 1.39-.04 2.13 0 1.45.05 2.13.08 1.31.13 1.9c.04.46.12.92.24 1.36l-3.78.29Zm-2.86-2.64c.47.07.95 0 1.37-.21.37-.19.67-.48.88-.82.21-.35.34-.73.37-1.13.04-.39 0-.79-.14-1.16-.13-.35-.37-.67-.69-.9a1.95 1.95 0 0 0-1.17-.38c-.48-.03-.96.08-1.37.3-.36.2-.65.48-.86.81-.21.33-.33.69-.37 1.07-.05.37 0 .74.13 1.09.13.34.34.64.63.88.34.27.76.43 1.21.45ZM82.21 33.88c.06.3.18.59.38.85.17.22.38.4.62.55.22.13.47.23.73.28.23.04.46.04.69 0 .21-.04.4-.12.57-.25.16-.12.26-.29.29-.48.05-.25-.07-.49-.29-.63-.31-.17-.64-.31-.99-.4-.41-.12-.86-.23-1.37-.35-.5-.12-.98-.29-1.43-.52-.46-.23-.87-.54-1.2-.91-.37-.43-.61-.95-.69-1.5-.1-.53.02-1.07.34-1.52.33-.47.78-.86 1.32-1.13.6-.32 1.26-.53 1.94-.63.73-.11 1.48-.09 2.21.04.77.14 1.5.42 2.15.81.71.43 1.31 1.01 1.73 1.7l-2.57 1.04a2.77 2.77 0 0 0-.55-.63c-.21-.16-.44-.3-.69-.4-.21-.1-.45-.17-.69-.21a3.2 3.2 0 0 0-.69-.04c-.24.02-.47.08-.69.18-.18.08-.34.22-.45.38-.09.17-.12.36-.08.54.06.24.2.46.39.63.25.25.58.43.94.52.42.12.84.22 1.27.29.45.08.91.16 1.37.26.44.09.86.23 1.25.43.37.21.67.52.87.88.25.43.36.91.33 1.39 0 .46-.15.91-.42 1.3-.28.39-.65.72-1.08.97-.47.28-.98.49-1.52.63-.57.14-1.16.21-1.75.21-.61 0-1.21-.08-1.79-.22-.58-.15-1.13-.38-1.62-.68-1.07-.67-1.77-1.73-1.93-2.91l3.09-.44Z" style="fill:#fff;stroke:#000;stroke-miterlimit:10;stroke-width:.66px"/><path d="M100.22 27.2c.85-.03 1.69.13 2.45.47.66.3 1.23.73 1.68 1.26.44.53.76 1.14.93 1.79.18.67.25 1.35.21 2.04-.06.69-.23 1.38-.51 2.02-.27.64-.68 1.23-1.19 1.73-1.13 1.1-2.74 1.66-4.38 1.54-.78-.02-1.54-.21-2.22-.56-.6-.32-1.13-.75-1.54-1.26-.41-.52-.71-1.11-.88-1.73-.18-.64-.25-1.3-.21-1.96.04-.67.19-1.33.45-1.95.25-.62.62-1.19 1.1-1.69.48-.51 1.07-.92 1.73-1.2.75-.32 1.56-.48 2.38-.49Zm-.59 8.39c.51.05 1.02-.09 1.43-.37.39-.28.7-.64.9-1.06.22-.45.35-.93.38-1.42.04-.49-.01-.98-.15-1.45-.12-.43-.36-.84-.69-1.17-.29-.32-.7-.52-1.15-.56a1.8 1.8 0 0 0-1.05.16c-.31.15-.58.37-.79.63-.23.29-.41.61-.53.95-.13.36-.22.74-.26 1.12-.05.38-.05.76 0 1.14.05.35.15.69.32 1 .14.28.35.53.61.73.28.2.62.31.98.3Z" style="fill:#f8ec1f;stroke:#000;stroke-miterlimit:10;stroke-width:.62px"/><path d="M112.1 30.42c-.4.03-.77.2-1.03.48-.35.4-.6.87-.73 1.37-.24.79-.41 1.59-.51 2.4-.14.97-.26 2.16-.36 3.55l-3.19-.27c.11-.44.19-.88.23-1.32.06-.53.11-1.11.12-1.74.02-.63.02-1.29 0-1.97 0-.68 0-1.33-.05-1.96s-.06-1.21-.1-1.74-.1-.96-.16-1.3l3.36-.12v.79c.14-.11.29-.22.48-.34.2-.13.42-.24.65-.32.28-.1.57-.18.87-.24.38-.08.76-.11 1.14-.11.71-.02 1.41.15 2 .51.56.37 1.02.84 1.37 1.38.42.61.74 1.28.95 1.97.23.74.4 1.49.52 2.26.12.75.19 1.51.22 2.26.04.74.04 1.4 0 1.97l-3.5.15c.04-.58.05-1.16.03-1.77s-.05-1.2-.12-1.78c-.06-.55-.16-1.09-.29-1.63-.11-.46-.26-.9-.47-1.33-.15-.33-.36-.63-.63-.88-.21-.2-.51-.31-.81-.29Z" style="fill:#fff;stroke:#000;stroke-miterlimit:10;stroke-width:.66px"/><path d="M123.19 29.56c.31.06.61.1.92.13.38.04.86.06 1.42.08 0-.54-.05-1.02-.1-1.46s-.1-.8-.15-1.09l3.49-.25c-.04.95-.08 1.83-.1 2.65l1.21-.12 1.37-.16-.16 3.46a14.641 14.641 0 0 0-2.4-.28c0 1.78.04 3.12.13 4.02 0 .47.07.93.2 1.38l-3.94.16c.1-.32.17-.65.22-.98.06-.4.12-.85.16-1.35s.08-1.02.11-1.56 0-1.08 0-1.62c-.39.04-.78.09-1.16.15-.36.05-.71.12-1.06.22l-.16-3.39Z" style="fill:#53a2d9;stroke:#000;stroke-miterlimit:10;stroke-width:.62px"/><path d="M137.64 31.7c-.22 0-.43.04-.64.11-.21.08-.39.2-.53.37-.19.21-.33.46-.43.71-.14.39-.26.78-.34 1.18-.1.48-.2 1.06-.27 1.74s-.15 1.48-.23 2.41l-3.3-.25c.11-.45.19-.91.23-1.36.06-.58.1-1.21.13-1.9s.04-1.41.04-2.16 0-1.47-.04-2.16c-.04-.69-.06-1.32-.11-1.9s-.1-1.02-.16-1.35l3.47-.13v.27c0 .15-.03.32-.05.53s-.04.43-.07.67-.05.45-.07.66-.04.39-.05.53 0 .24 0 .27c.13-.18.3-.34.49-.47.24-.18.5-.33.77-.45.31-.13.63-.23.95-.31.34-.08.69-.1 1.04-.08a4.792 4.792 0 0 1 3.41 1.81c.41.52.75 1.08.99 1.69.25.64.45 1.29.59 1.95.14.66.23 1.33.27 2 .04.67.05 1.26.03 1.86l-3.64.16c.06-.82.05-1.65-.05-2.46-.08-.7-.24-1.39-.49-2.06-.18-.51-.46-.98-.84-1.39-.27-.31-.68-.5-1.11-.49ZM154.71 33.96c-.08.63-.26 1.24-.55 1.81-.24.48-.59.91-1.01 1.26-.43.33-.92.58-1.45.73-.6.17-1.23.27-1.86.3-.85.07-1.7-.05-2.49-.34a4.84 4.84 0 0 1-1.78-1.15c-.48-.49-.84-1.06-1.07-1.69-.24-.64-.36-1.31-.36-1.98 0-.68.12-1.36.35-2.01.22-.64.58-1.24 1.05-1.76.48-.53 1.08-.96 1.76-1.26.77-.33 1.61-.5 2.46-.49.71 0 1.42.15 2.06.45.64.28 1.2.7 1.65 1.21.45.54.78 1.16.97 1.81.21.71.26 1.46.17 2.19l-7.31.08c-.04.61.13 1.21.49 1.72.36.45.92.74 1.53.78.55.09 1.12-.04 1.56-.36.44-.36.74-.83.88-1.36l2.96.04Zm-3.08-2.86c-.13-.45-.4-.85-.79-1.15a1.78 1.78 0 0 0-1.12-.33c-.42.03-.83.17-1.16.41-.4.28-.71.65-.9 1.07h3.98Z" style="fill:#fff;stroke:#000;stroke-miterlimit:10;stroke-width:.66px"/><path d="M163.15 38.51c.03-.19.05-.39.06-.58v-2.99c-.23-.42-.48-.85-.75-1.26s-.59-.89-.95-1.4l-1.21-1.71c-.45-.63-.96-1.37-1.53-2.22l3.23-1.13c.16.33.35.71.57 1.16s.47.89.73 1.33.55.87.85 1.26c.24.34.53.65.86.92.26-.28.48-.58.65-.91.23-.4.45-.83.69-1.3s.42-.92.62-1.39.36-.87.5-1.2l3.33 1.26c-.55.78-1.01 1.47-1.37 2.06-.36.59-.74 1.14-1.05 1.66s-.6 1.02-.88 1.5-.57 1.01-.89 1.57v1.57c0 .28 0 .55.05.82.02.25.06.5.12.75l-3.64.23Z" style="fill:#efa01f;stroke:#000;stroke-miterlimit:10;stroke-width:.62px"/><path d="M178.06 37.91c.03-.11.06-.22.1-.34s.06-.23.09-.35c-.36.28-.77.5-1.21.63-.49.15-1 .21-1.51.19-.85.01-1.68-.16-2.45-.49-.66-.3-1.24-.73-1.71-1.26-.44-.51-.77-1.1-.97-1.73-.2-.64-.29-1.31-.27-1.98.04-.68.19-1.34.45-1.98.25-.64.64-1.22 1.13-1.73.5-.51 1.11-.93 1.79-1.21.77-.32 1.6-.48 2.44-.46a4.613 4.613 0 0 1 1.54.29c.22.07.43.16.63.27.14.07.28.16.41.25 0-.09 0-.18-.03-.27s0-.18 0-.27l3.32-.06c-.09.44-.15.89-.18 1.33-.05.55-.1 1.16-.12 1.82s-.04 1.35-.04 2.07 0 1.4.05 2.07.08 1.26.14 1.83c.05.46.14.91.27 1.35l-3.87.05Zm-2.77-2.33c.49.07.98-.05 1.37-.33.39-.29.69-.66.89-1.08.22-.47.35-.96.39-1.47.05-.5.01-1.01-.12-1.5-.11-.43-.32-.83-.63-1.17-.29-.31-.72-.49-1.16-.49-.5-.02-.98.13-1.37.42-.38.28-.68.65-.88 1.06-.22.45-.35.92-.39 1.41-.06.48-.02.96.1 1.43.11.42.32.82.62 1.16.3.33.72.53 1.19.56ZM190.05 31.92a3.27 3.27 0 0 0-.69-1.12c-.22-.25-.56-.39-.92-.38-.43.01-.85.16-1.18.42-.4.34-.69.78-.84 1.26-.25.75-.41 1.53-.47 2.31-.1 1.18-.12 2.37-.06 3.56l-3.59.27c.1-.45.18-.9.22-1.36.07-.58.12-1.21.16-1.9.04-.7.08-1.41.1-2.15s.03-1.47.03-2.15 0-1.32-.03-1.9-.06-1.02-.1-1.35l3.28-.28v1.45c.14-.11.29-.22.48-.34.2-.13.42-.24.65-.32.28-.1.57-.18.87-.24.38-.08.76-.11 1.14-.11.47 0 .93.06 1.37.21.4.14.78.34 1.11.59.34.27.64.58.9.92.26.37.49.76.69 1.16l-3.12 1.46ZM200.85 38.22v-.77c0-.08.01-.15.04-.23-.36.28-.77.49-1.22.63-.49.14-1 .21-1.51.19-.84.01-1.68-.14-2.46-.43-.65-.24-1.24-.61-1.72-1.08-.44-.43-.77-.95-.98-1.51-.21-.55-.3-1.14-.27-1.72.03-.59.17-1.17.42-1.71.26-.56.64-1.07 1.11-1.49.51-.45 1.12-.81 1.78-1.05.78-.28 1.61-.42 2.44-.4.26 0 .53.03.79.08s.51.12.76.21c.22.07.43.16.63.27.14.07.28.16.41.25 0-.04-.01-.16-.04-.38 0-.21-.05-.44-.08-.69s-.05-.47-.08-.68-.03-.33-.03-.39l3.58-.16c-.08.44-.13.89-.16 1.34-.04.57-.08 1.19-.1 1.9s-.04 1.39-.04 2.13 0 1.45.05 2.13.08 1.31.13 1.9c.04.46.12.92.24 1.36l-3.69.31Zm-2.86-2.64c.47.07.95 0 1.37-.21.37-.19.67-.48.88-.82.21-.35.34-.73.37-1.13.04-.39-.01-.79-.14-1.16-.12-.35-.35-.66-.65-.9a1.95 1.95 0 0 0-1.17-.38c-.48-.03-.96.08-1.37.3-.36.2-.65.48-.86.81-.42.65-.5 1.44-.24 2.15.12.34.34.65.63.88a2 2 0 0 0 1.18.45Z" style="fill:#fff;stroke:#000;stroke-miterlimit:10;stroke-width:.66px"/><path d="m190.81 1.89.17.21c.95-.19 1.92.14 2.56.85l.11.14c2.07-.87 4.43-.31 5.84 1.38a5.847 5.847 0 0 1 1.67 5.11c.31.2.6.43.85.7 1.39 1.24 1.7 3.3.74 4.93.57.29 1.09.67 1.53 1.13 1.85 1.91 2.12 4.71.59 6.3-1.53 1.59-4.22 1.29-6.06-.6l-.36-.43c-1.51.59-3.2.16-4.21-1.07-.95-.91-1.42-2.2-1.29-3.52a4.86 4.86 0 0 1-3.63-1.56c-1.3-1.24-1.82-3.1-1.37-4.87-.3-.17-.56-.37-.8-.62-1.09-.93-1.24-2.56-.36-3.72l-.12-.14c-1.35-1.18-1.55-3.21-.46-4.68 1.2-1.16 3.23-.96 4.61.46Z" style="fill:#faaf3b"/><path d="M195.91 13.46s-1.68.48-2.14-.52c-.47-1.01 1.14-1.66 1.14-1.66s.16.59.37 1.15c.15.38.36.73.63 1.03Z" style="fill:#f05d5a"/><path d="M195.15 12.44c.23.7.8 1.24 1.52 1.44.06 0 .11-.04.12-.1 0-.08-.06-.14-.14-.16 0 0-.71-.1-1.27-1.24s-.16-1.66-.15-1.69c.05-.06.04-.15-.02-.2-.05-.05-.13-.06-.18-.02-.01.02-.5.63.14 1.96Z" style="fill:#232a5a"/><path d="M197.56 14.42c.14.11.25.24.33.4.11.16.21.33.3.5l.06.38c.27.08.29.34.05.57-.14.12-.33.18-.51.17-.17.04-.34.02-.49-.06-.34-.19-.59-.51-.67-.89-.11-.4-.14-.85.28-1.08.21-.11.45-.1.65.03Z" style="fill:#ec6565;isolation:isolate;opacity:.45"/><g style="opacity:.5"><path d="M197.94 16.12c.06.03.1.08.12.14l-.05.04a.722.722 0 0 1-.2-.09s-.04-.05.02-.09.07-.06.12 0ZM197.21 15.73l.05.05v.09s-.03.03-.05.04l-.05.04a.113.113 0 0 1-.09-.13c.01-.06.07-.1.14-.09ZM197.62 15.33c.06-.05.05-.04 0 0l-.05.04-.05.04-.15.12.17-.15s.03-.04.06-.05c0 0 .04-.11 0 0ZM197.48 14.72l.05.05-.08.07-.05-.05s.04-.06.07-.06ZM196.93 14.98l.06.07s-.03.04-.06.05c-.01.02-.03.04-.06.05l-.06-.07.06-.05.06-.05Z" style="fill:#030303"/></g><path d="M194.02 7.82c.07.05.12.12.16.19.07.08.18.13.29.11 0 .21.06.42.17.59l.22.26c.15.21.12.5-.07.68-.14.12-.33.19-.52.19-.17.03-.35 0-.51-.07-.34-.2-.58-.52-.66-.9-.11-.4-.14-.85.28-1.09.21-.1.46-.09.65.04Z" style="fill:#ec6565;isolation:isolate;opacity:.45"/><g style="opacity:.5"><path d="M194.4 9.51s.09.09.12.14a.663.663 0 0 1-.19-.09s-.04-.05.02-.09c.02 0 .04.02.05.04ZM193.66 9.13s.06.03.05.06v.08s-.03.03-.05.04a.09.09 0 0 1-.09-.09c0-.05.04-.09.09-.09ZM194.21 8.61s-.08.06-.11.09l-.05.04s-.02.03-.05.04m.05-.04c.04-.05.1-.1.16-.13l-.16.13ZM194.08 8l.04.05-.08.07-.05-.05s.04-.06.07-.06 0-.04.02 0ZM193.53 8.28l.06.07-.05.04-.06.05s-.05-.04-.06-.07c.01-.02.03-.04.06-.05l.05-.04Z" style="fill:#030303"/></g><path d="M198.02 14.11c.36-.11.7-.28.99-.51.07-.07.1-.17.09-.27a.54.54 0 0 0-.49-.36c-.15-.03-.3-.05-.46-.04-.19 0-.33.13-.5.15s-.2-.24-.09-.24.35-.14.56-.16c.2 0 .4.01.59.07.33.07.57.36.59.7.02.6-.81.68-1.18.91-.1.08-.26-.15-.17-.2l.06-.05Z" style="fill:#232a5a"/><path d="M199.49 14a.66.66 0 0 1-.41-.12c-.05-.06 0-.14.08-.07.09.06.21.09.32.08.08 0 .1.12.02.12l-.02-.02ZM199.47 14.37c-.24-.05-.46-.16-.62-.34-.05-.06.01-.15.08-.07.14.15.33.25.54.29 0 0 .11.13.01.13ZM199.06 14.56a.867.867 0 0 1-.27-.14c-.11-.09-.2-.2-.26-.32m.08-.07.2.24c.07.07.16.12.26.15.05.05.1.12-.01.12l-.46-.51ZM199.48 13.69s-.1 0-.17-.03l-.1-.12c-.05-.06 0-.14.08-.07.02.04.05.07.08.1h.13s.04.13-.04.12Z" style="fill:#232a5a"/><path d="M198.83 14.57a.929.929 0 0 1-.37-.44m.08-.07c.05.16.16.29.31.37.05.06.03.15-.04.11l-.26-.48ZM195.24 9.13c.27-.27.57-.48.92-.64.11-.04.23-.02.32.05.17.13.22.36.14.56-.03.15-.09.29-.16.43-.07.15-.26.22-.35.37s.11.29.17.2l.39-.42c.09-.17.15-.36.18-.55a.733.733 0 0 0-.37-.82c-.56-.26-1 .39-1.36.63-.11.09.03.3.17.2h-.03ZM196.05 7.82c-.07.12-.09.27-.06.4m.08-.07c-.08-.09.01-.21.06-.31s-.07-.1-.08-.02l.03.33Z" style="fill:#232a5a"/><path d="M195.66 7.69c-.06.23-.04.47.06.69.05.06.14.05.08-.07a.915.915 0 0 1-.05-.59s-.11-.13-.08-.1v.07ZM195.15 7.97c0 .1.01.2.03.3.05.13.12.25.21.36.05.06.13.01.08-.07-.07-.07-.14-.15-.2-.23-.03-.1-.04-.2-.03-.3.05-.04-.1-.12-.12-.03l.03-.02ZM196.3 7.96s-.07.06-.05.15c0 .06.02.11.04.16.05.05.15.05.08-.07-.03-.04-.04-.08-.03-.13.01-.04.03-.08.04-.11 0 0-.07-.08-.09 0Z" style="fill:#232a5a"/><path d="M195.06 8.19c.02.2.12.38.26.52.05.06.14-.04.08-.07a.765.765 0 0 1-.21-.42c-.04-.1-.1-.05-.13-.03Z" style="fill:#232a5a"/><path d="M170.72 22.94c2.37-.8 4.37-1.7 6-2.69 1.63-1 2.89-2.06 3.79-3.17.9-1.11 1.44-2.2 1.62-3.27.18-1.06.02-2.05-.49-2.95-.51-.91-1.37-1.65-2.56-2.24s-2.73-.96-4.6-1.12c-1.87-.16-4.06-.03-6.56.4-.95-1.51-2.04-2.75-3.29-3.74-1.25-.98-2.51-1.7-3.79-2.14-1.28-.45-2.49-.63-3.65-.55-1.15.08-2.12.45-2.9 1.11-.78.66-1.29 1.61-1.54 2.84-.25 1.24-.1 2.77.46 4.62.55 1.84 1.57 3.99 3.04 6.44 1.48 2.45 3.55 5.21 6.24 8.29 3.12-.42 5.86-1.02 8.23-1.82Z" style="fill:#3bb44a"/></svg>