<svg xmlns="http://www.w3.org/2000/svg" viewBox="0 0 206 40"><path d="M90.66 1.78C75.22 4.95 62.21 13.21 54.14 24.39h1.95C69.01 7.16 93.79-1.97 118.35 3.23c14.5 3.07 26.76 10.76 34.57 21.16h1.96C141.83 6.29 116.19-3.47 90.66 1.78Z" style="fill:#5b5b5b"/><path d="M118.37 6.71c12.23 2.8 22.67 9.15 29.78 17.68h2.68C138.06 8.09 114.19-.38 90.66 4.77c-13.5 2.95-24.97 10.04-32.48 19.62h2.64C73.41 9.26 96.13 1.62 118.37 6.71Z"/><path d="M90.66 8.5c-11.06 2.63-20.57 8.3-27.28 15.89h2.23c12.15-13.03 32.74-19.25 52.66-14.35 10.07 2.48 18.78 7.56 25.11 14.35h2.27c-12.39-14.02-33.98-20.89-55-15.89Z" style="fill:#5b5b5b"/><path d="M140.92 24.39c-11.95-11.97-31.49-17.45-50.25-12.61-8.91 2.3-16.68 6.73-22.55 12.61h2.15c11.74-11.04 30.35-15.9 48.11-11.13 7.93 2.13 14.91 6.02 20.34 11.13h2.19Z"/><path d="M6.23 38.75c-.07.33.03.67.28.91.22.22.47.34.7.34.16 0 .32-.06.45-.18.36-.4.69-.85.96-1.31.34-.49.65-1.01.92-1.53l.11-.21-2.53.94c-.48.14-.83.55-.89 1.04ZM3.45 27.64a.85.85 0 0 0-.68.05c-.21.1-.37.28-.45.51v.1c-.19.57.06 1.18.61 1.45l7.67 3.85c.1-.17.21-.33.32-.49L3.7 27.78a.745.745 0 0 0-.25-.13ZM25.48 28c.25-.35.31-.81.13-1.22-.18-.42-.46-.69-.77-.77-.22-.06-.46 0-.66.16l-2 1.66c1.06-.04 2.17.02 3.31.17ZM8.02 29.38 4.9 25.06s-.04-.06-.07-.08a.58.58 0 0 0-.81.01l-.02.02c-.12.13-.19.29-.19.47s.08.34.21.46l4 3.45ZM11.52 32.37c.07-.08.15-.15.23-.23l-3.59-5.32s-.06-.07-.1-.1c-.08-.06-.18-.07-.28-.06-.1.02-.18.08-.24.15-.2.25-.2.6 0 .85l3.98 4.7ZM4.67 36.67h-.03a.45.45 0 0 0-.3.55c0 .03 0 .05.02.08a.53.53 0 0 0 .51.39c.05 0 .09 0 .14-.02l4.96-1.38c-.01-.13 0-.27 0-.4l-5.29.79ZM.92 30.36s-.06-.03-.09-.04a.621.621 0 0 0-.78.37v.07a.47.47 0 0 0-.04.16c-.04.36.23.69.61.73l4 .37-3.68-1.66ZM9.39 29.9l-.08-.08a.679.679 0 0 0-.95.08l-.02.03v.04s-.03.04-.05.07c-.14.2-.2.45-.15.69.05.24.19.45.39.59l2.46 1.69c.16-.22.34-.43.52-.63L9.39 29.9ZM12.59 31.37c.2-.16.4-.31.6-.46l-.41-3.5a.623.623 0 0 0-.69-.53.68.68 0 0 0-.31.08c-.2.09-.36.26-.43.47-.08.21-.07.43.02.62l1.21 3.32ZM12.05 31.84c.16-.15.33-.3.51-.44l-3.12-7.99a.808.808 0 0 0-.75-.57.873.873 0 0 0-.6.2c-.46.36-.58.99-.29 1.5l4.26 7.31ZM19.18 28.2l.58-.7c.41-.49.43-1.19.06-1.7-.14-.2-.34-.35-.57-.45-.33-.14-.69-.14-1.02 0-.33.13-.59.38-.72.7l-1.34 3.15s.07-.03.11-.05c.92-.42 1.89-.73 2.9-.95ZM14.15 20.45c-.18-.16-.38-.24-.57-.22-.07 0-.15 0-.22.01-.29.05-.55.2-.72.43-.17.24-.24.52-.2.81l.91 9.32a17.163 17.163 0 0 1 2.35-1.37l1.53-4.25c.1-.23-.02-.5-.26-.61-.02 0-.05-.01-.08-.02a.583.583 0 0 0-.4.11c-.11.09-.18.22-.2.34l-.85 3.36a.792.792 0 0 0-.3-.52c-.21-.15-.47-.15-.71 0-.13.09-.21.22-.27.36l.4-6.8c.02-.34-.14-.73-.41-.97ZM4.03 34.27v.15c-.05.17-.06.34-.04.51.09.65.65 1.13 1.31 1.13h.17l4.51-.58c.03-.29.1-.58.19-.85L5.42 33.5c-.6-.14-1.21.21-1.39.8ZM9.32 33.58c-.07.09-.11.2-.11.32 0 .14.06.27.16.36.1.1.23.15.35.15h.01l.48.07c.09-.26.2-.51.33-.75l-.61-.26a.465.465 0 0 0-.61.12ZM49.33 37.78c-1.53.13-3.08.08-4.6-.17-1.21-.3-2.37-.62-3.53-.93-2.51-.68-5.11-1.38-7.66-1.87l-.39-.07c-3.88-.74-7.55-1.43-11.51.24-2.2.77-4.11 2.22-5.41 4.09 1.3 1.09 4.14.83 5.72.46.63-.15 1.27-.33 1.92-.53.66-.21 1.32-.43 1.98-.65 2.1-.71 4.27-1.44 6.51-1.58 3.08-.15 6.15.13 9.14.83.49.1.98.23 1.48.35 1.68.42 3.26.82 4.92.5a5.11 5.11 0 0 0 1.87-.75c-.13.03-.26.06-.39.08h-.04Z" style="fill:#5b5b5b"/><path d="M17.33 21.38c0-.1-.05-.19-.11-.27-.22-.29-.74 0-.96.36-.1.31-.15.63-.16.95-.04.25-.14.65-.39.77.22-.08.46-.08.69 0 .34.11.7.11 1.04 0 .4-.14.68-.5.74-.91a.617.617 0 0 0-.27-.62.556.556 0 0 0-.47.06s-.56.79-.85.88c.28-.3.53-.62.75-.97.01-.09.01-.17 0-.26ZM45.22 17.46s.04-.09.06-.13c.29-.68-.04-1.46-.73-1.75-.05-.02-.1-.04-.15-.05a1.1 1.1 0 0 0-1.34.78c-.09.33.01.68.27.91.44.4 1.35.07 1.18-.59a.503.503 0 0 0-.44-.37c-.22 0-.4.15-.42.37a.34.34 0 0 1 .42-.26c.19.08.27.28.2.47-.08.18-.28.29-.48.27-.02 0-.05 0-.07-.01a.527.527 0 0 1-.39-.64c.01-.04.03-.07.05-.1a.8.8 0 0 1 1.08-.31c.26.16.42.43.44.73.02.21-.03.42-.13.61v.06c-.53.71-1.51.91-2.28.46.15.11.31.2.48.27l.19.02c.78.27 1.63-.04 2.06-.73ZM27.29 11.51v.02-.02Z" style="fill:#5b5b5b"/><path d="M21.22 33.97c.47-.19.95-.34 1.44-.48.11-.03.23-.07.34-.1l.41-.09c3.4-.82 6.59-.24 9.94.4l.39.07c.4.08.81.17 1.21.25-1.17-.5-2.35-.96-3.56-1.3-.06-.02-.12-.03-.18-.04l.85-.35c-.12-.19-.2-.41-.3-.61 1.92.55 3.76 1.37 5.56 2.17 1.15.51 2.34 1.04 3.51 1.49 1.28.44 2.62.81 3.97 1.12.03 0 .08-.01.11-.02-1.95-.39-3.91-1.29-5.7-2.1l-.83-.38c-1.02-.46-2.03-.96-3.04-1.46-1.31-.65-2.66-1.31-4.03-1.87-.15-.43-.28-.86-.36-1.3-.17-.86-.24-1.74-.15-2.63 0 0-.16-2.42 2.67-4.65.11-.08.2-.19.31-.28.71-.57 2.54-1.95 4.02-2.15.72-.31 1.51-.41 2.29-.28.25.08.48.2.68.37.39.36.42.96.06 1.35-.04.04-.09.08-.13.12-.35.2-.81.09-1.02-.26v-.02c-.1-.28-.03-.6.2-.8 0 0-.07 0-.1.04-.31.17-.46.53-.36.87.13.38.47.64.87.68h.12c.1 0 .21-.02.31-.04.67-.2 1.04-.89.84-1.55-.01-.04-.03-.08-.04-.12-.14-.3-.4-.54-.71-.67-.13-.05-.27-.09-.41-.12l-.31-.02c.72-.01 1.4-.27 1.95-.73h.04c.57-.66.74-1.57.45-2.39-.2-.43-.54-.78-.97-.99-.35-.15-.73-.21-1.1-.15l-.18.04-.13.04-.11.04c-.46.18-.81.54-.97 1-.31 1 .49 2.14 1.67 1.67.38-.15.65-.5.69-.9 0-.41-.29-.76-.7-.84h-.01a.736.736 0 0 0-.83.63c0 .17.08.34.22.44.15.1.34.1.49 0l-.12.03c-.23.01-.44-.16-.45-.39v-.01c.03-.26.28-.45.54-.41.27.04.47.27.47.54 0 .26-.17.49-.41.59a.835.835 0 0 1-1.08-.43c-.11-.23-.13-.49-.06-.73.16-.49.6-.83 1.12-.85.49-.02.96.24 1.2.67.26.43.3.95.12 1.41a1.78 1.78 0 0 1-1.63 1.19h.03c-1.88.24-3.68.9-5.24 1.97-.11.08-.22.16-.32.25.18-.21.38-.42.54-.65.49-.71.84-1.51 1.01-2.35.18-.95.15-1.92-.09-2.85-.1-.38-.25-.75-.45-1.09a5.25 5.25 0 0 0-.47-.69c-.01-.3.01-.61.1-.9.13-.37.35-.69.65-.94.45-.4 1.07-.54 1.65-.37.49.14.88.52 1.01 1.01v.21c.05.3-.04.6-.23.83-.36.31-.87.35-1.28.12a.726.726 0 0 1-.23-.98c.21-.29.62-.35.92-.15.02.01.03.02.05.04.16.14.21.36.11.55a.6.6 0 0 1-.65.27c.15.05.3.07.45.06.34-.11.53-.48.42-.81-.02-.05-.04-.11-.08-.15-.29-.36-.8-.48-1.23-.28-.82.35-.67 1.51 0 1.96.42.24.91.29 1.37.16.4-.12.72-.4.89-.78l.07-.18c.3-.97-.26-1.99-1.25-2.29l-.24-.06c-.12-.03-.25-.05-.37-.05-.38-.02-.76.06-1.1.23-.3.15-.55.37-.74.64-.35.48-.51 1.06-.47 1.65-.47-.53-1.05-.98-1.7-1.28-.24-.11-.49-.19-.74-.26A5.12 5.12 0 0 0 28 12.95c-.03.04-.05.08-.08.11-.63.12-1.3-.11-1.72-.64v-.06c-.1-.19-.15-.4-.13-.61a.9.9 0 0 1 .44-.73c.39-.21.87-.07 1.08.31.02.03.03.07.05.1.07.28-.1.57-.39.64-.02 0-.05.01-.07.01-.2.02-.39-.09-.48-.27-.07-.18.01-.39.19-.47.19-.05.38.06.44.24a.404.404 0 0 0-.42-.34c-.21.02-.38.17-.44.37-.16.66.75.99 1.19.59.26-.23.36-.58.27-.91a1.1 1.1 0 0 0-1.34-.78c-.05.01-.1.03-.15.05a1.34 1.34 0 0 0-.72 1.76l.06.12c.42.69 1.27.99 2.04.74-.82 1.19-.9 2.73-.17 4a3.371 3.371 0 0 0 3.5 1.56c.97-.22 1.76-.9 2.13-1.81.46-1.07-.05-2.32-1.14-2.77a2.15 2.15 0 0 0-2.25.36 1.238 1.238 0 0 0 .01 1.97c-.48-.48-.48-1.25 0-1.72.07-.07.15-.13.24-.19a1.6 1.6 0 0 1 1.66-.1 1.702 1.702 0 0 1 .66 2.48c-.17.24-.37.45-.61.62 0 0-1.84 1.3-3.48-.73 0 0-1.49-2.13.97-3.98 1.65-1.17 3.93-.9 5.26.6.85.89 1.32 2.08 1.3 3.31-.01 1.65-.78 3.2-2.1 4.21-.4.31-.83.57-1.21.91-.27.24-.54.5-.75.77-.69.73-1.27 1.55-1.74 2.43-.17.35-.32.71-.45 1.07.05-.39.05-.78 0-1.16-.01-.27-.05-.55-.12-.81-.21-.78-.66-1.48-1.28-2-.11-.09-.24-.18-.36-.27-.5-.35-1.02-.66-1.57-.93-.52-.26-1.08-.46-1.6-.73a4.05 4.05 0 0 1-1.56-1.28c-.43-.66-.49-1.49-.16-2.2l.03-.06c.51-.79 1.58-1.02 2.39-.52.48.38.63 1.05.35 1.59-.26.44-.8.62-1.28.45-.35-.1-.6-.4-.65-.75-.01-.25.1-.48.31-.62.1-.1.21-.17.34-.22-.25.06-.47.2-.62.4-.13.2-.17.44-.13.67.07.35.31.64.64.76.15.06.31.09.47.09.77.04 1.43-.53 1.49-1.29 0-.16-.01-.32-.05-.47-.16-.8-.82-1.41-1.65-1.51-.68-.08-1.35.15-1.84.62-.47.47-.73 1.1-.75 1.75-.02.53.1 1.07.35 1.54.49.75 1.22 1.33 2.07 1.64.88.3 1.72.7 2.52 1.18-.58-.21-1.21-.18-1.77.07-.25.15-.42.41-.47.69-.1.56.28 1.08.84 1.18h.26c.22 0 .42-.12.54-.31.1-.16.12-.36.05-.54a.6.6 0 0 0-.2-.27l-.13-.08c.13.1.2.27.18.43.02.19-.1.36-.28.43-.18.05-.37.01-.52-.1a.607.607 0 0 1-.18-.77c.4-.76 1.88-.59 2.49-.24 1 .66 1.63 1.75 1.7 2.93.06.39.06.78 0 1.17-.06.22-.13.43-.17.65 0 0-.09.65-.16 1.54-.03.34-.05.71-.06 1.1-.07-.02-.15-.05-.22-.07-2.15-.61-4.17-.91-6.07-.91-2.21 0-4.24.41-6.08 1.24-1.96.89-6.43 3.31-5.59 6.61.32 1.26 1.25 2.21 2.22 2.25.4.02.95-.05 1.4-.17-.34-.73-.44-1.55-.26-2.34.33-2.21 2.47-3.76 4.2-4.4 3.37-1.19 6.92-1.5 10.39-.94.01.38.05.75.1 1.09-1.13-.2-2.27-.31-3.41-.31-2.26 0-4.52.38-6.7 1.15-1.56.58-3.26 1.92-3.51 3.6-.11.48-.09.95.04 1.39 1.42-1.87 3.39-3.31 5.62-4.09Z" style="fill:#5b5b5b"/><path d="M24.19 21.46c-.28.02-.56-.04-.82-.15-.47-.29-.84-.7-1.07-1.2-.54-.82-1.11-1.88-2.23-2.02h-.29c-.56 0-1.08.32-1.33.82-.08.24-.11.49-.08.73.07.45.37.83.8 1 .44.16.94.03 1.24-.33a.84.84 0 0 0-.21-1.2.66.66 0 0 0-.45-.09.69.69 0 0 0-.43.22c-.17.17-.17.44 0 .61.11.09.25.14.39.14-.09 0-.17-.03-.25-.07a.333.333 0 0 1-.17-.23.478.478 0 0 1 0-.29c.07-.13.2-.21.34-.23.17-.03.34.02.46.14.23.25.21.64-.05.87l-.01.01c-.34.21-.78.17-1.08-.09a.813.813 0 0 1-.19-.67c.01-.28.16-.53.4-.68.09-.06.19-.1.29-.12 1.1-.33 1.84.65 2.38 1.39.13.18.26.34.38.52.27.46.7.82 1.21 1 .54.14 1.12.04 1.59-.26-.25.11-.52.17-.8.16ZM46.26 13.11c.33-.22.69-.38 1.07-.47-.37.15-.72.34-1.06.56-.04 0-.09.18-.1.21-.03.09-.03.18 0 .27.11.35.65.3.98 0 .21-.22.39-.47.53-.73.13-.19.39-.5.65-.52-.22 0-.43-.07-.6-.2a1.45 1.45 0 0 0-.93-.35c-.38 0-.75.18-.96.5-.12.19-.12.42 0 .61.12.1.27.14.42.12ZM43.81 7.09c.3-.15.63-.26.97-.31-.33.1-.66.23-.97.39-.04 0-.1.14-.11.17-.04.07-.06.15-.05.24.07.3.53.31.83.1.2-.18.38-.38.52-.61.14-.15.38-.4.61-.39a.718.718 0 0 1-.48-.24c-.19-.21-.46-.34-.74-.37-.32-.02-.64.12-.84.37-.13.14-.16.35-.08.52.09.09.22.14.35.13ZM47.91 18.93c.33.08.67.05.98-.09.2-.09.44-.11.65-.04-.25-.11-.42-.49-.51-.73-.06-.31-.17-.62-.31-.9-.25-.37-.78-.58-.99-.26-.04.09-.06.19-.04.29 0 .08.02.17.05.25.28.31.58.59.92.84-.28-.05-.96-.78-.96-.78a.508.508 0 0 0-.45 0 .57.57 0 0 0-.13.63c.12.38.43.68.81.8ZM42.68 20.77a.538.538 0 0 0-.28-.08c-.37.04-.43.55-.21.91.2.24.43.46.69.64.18.16.45.45.41.73.04-.21.16-.39.33-.51.26-.18.44-.44.52-.73.1-.38-.03-.78-.33-1.04a.621.621 0 0 0-.62-.14c-.12.08-.19.22-.2.37.16.34.25.72.28 1.09a5.86 5.86 0 0 0-.38-1.09c0-.04-.16-.12-.2-.14ZM14.22 3.33c.21.22.5.35.81.35 0 0 .36 0 .47-.22a.32.32 0 0 0-.12-.3c-.31-.12-.59-.29-.85-.49.29.17.6.32.92.44.07.01.14.01.21 0 .08 0 .15-.04.21-.1.2-.2-.09-.51-.44-.61-.27-.03-.54-.03-.81 0-.24.01-.49-.06-.69-.2.11.12.15.29.13.45-.03.24.02.48.16.68ZM15.39 9.83c.18-.16.35-.35.49-.55v-.15c0-.06-.02-.12-.07-.17-.17-.18-.5-.04-.62.18-.06.18-.09.37-.1.56 0 .15-.09.38-.25.44.14-.05.29-.05.43 0 .22.07.45.07.66 0 .21-.06.38-.23.44-.44a.365.365 0 0 0-.17-.37.39.39 0 0 0-.3 0s-.35.45-.53.49ZM20.68 23.28c.25-.15.44-.38.54-.65.1-.31.02-.66-.21-.9a.57.57 0 0 0-.57-.16.45.45 0 0 0-.21.32c.11.32.17.66.15 1a4.44 4.44 0 0 0-.25-1c0-.04-.14-.12-.17-.14a.438.438 0 0 0-.25-.08c-.35 0-.44.47-.28.8.16.23.36.43.57.61.15.15.36.43.32.65.05-.19.18-.34.34-.44ZM18.44 16.88c.14-.19.16-.43.05-.64-.18-.33-.51-.55-.89-.59-.32-.03-.65 0-.96.09-.2.04-.39.17-.63.11.27.06.37.4.48.63.15.32.33.63.55.91.29.34.84.48 1 .15.03-.09.03-.19 0-.29-.02-.08-.04-.17-.08-.24-.25-.24-.51-.45-.8-.64.28.03.83.54.83.54.15.05.31.04.45-.04ZM19.44 15.84c.1 0 .2-.04.28-.11.04-.03.19-.12.19-.18.12-.31.21-.63.27-.96.02.32-.03.65-.16.95.01.15.09.29.22.37.24.04.48-.05.63-.23.24-.29.3-.68.17-1.03-.1-.35-.22-.39-.49-.78-.12-.16-.33-.26-.37-.5.05.26-.23.49-.4.69-.24.26-.45.55-.62.86-.2.39-.1.92.27.92ZM40.39 2.83s.66-.65.94-.68c-.33.23-.62.49-.89.78 0 0-.05.18-.06.23-.01.09 0 .19.04.27.19.31.7.15.95-.19.15-.27.26-.55.33-.85.08-.22.25-.58.51-.65a.89.89 0 0 1-.64-.06c-.29-.15-.62-.2-.95-.14-.36.09-.66.35-.79.69-.08.2-.04.44.11.6.14.06.3.06.44 0ZM20.76 3.07c.11-.04.2-.12.24-.23-.02-.32 0-.64.09-.95-.03.33-.03.65 0 .98 0 .04.08.15.1.18.04.07.1.11.18.14.28.09.45-.3.39-.65-.08-.26-.18-.5-.32-.73a.957.957 0 0 1-.11-.68c-.08.15-.21.26-.36.31a.973.973 0 0 0-.62 1.33s.14.32.42.3ZM31.64 6.27c.25.11.53.07.75-.09a.51.51 0 0 0 0-.48s-.75-.73-.75-1.02c.25.37.54.71.86 1.02.08.04.17.06.26.07.1.03.22.03.32 0 .37-.18.21-.73-.17-1.02-.31-.17-.64-.3-.98-.39-.25-.1-.66-.3-.75-.57.05.22.01.46-.11.65-.19.29-.27.65-.22.99.1.39.4.7.78.84ZM24 3.87c-.11.33-.04.7.19.97.14.17.36.24.57.2.12-.07.21-.19.23-.32-.11-.34-.15-.7-.13-1.06.04.36.12.72.23 1.06.05.06.1.11.17.15.07.06.16.1.25.1.35 0 .46-.47.3-.83-.16-.24-.35-.46-.57-.65-.15-.18-.36-.48-.31-.73-.06.19-.2.35-.37.45-.26.15-.46.38-.57.65ZM32.73 7.6c-.03.31.06.62.24.87.23.29.59.45.96.43 0 0 .42 0 .53-.34a.451.451 0 0 0-.16-.39c-.37-.12-.71-.3-1.02-.54.35.19.72.34 1.1.46h.24c.11-.03.2-.11.26-.2.22-.29-.13-.66-.55-.73-.32-.02-.63 0-.95.05-.25 0-.65 0-.82-.18.13.16.2.36.17.57ZM46.58 16.04a.838.838 0 0 0-.53-.26.728.728 0 0 0-.62.26.36.36 0 0 0 0 .32c.07.07.16.1.25.09.18-.1.38-.16.59-.18-.2.07-.4.15-.59.25 0 0-.07.1-.09.12-.03.05-.05.11-.04.17 0 .23.45.28.69.12.16-.13.3-.28.42-.45.11-.12.31-.3.47-.29-.19 0-.37-.05-.54-.15ZM42.79 7.89c-.21.04-.42.02-.62-.05a.927.927 0 0 0-1.33.24c-.02.12.01.24.1.34.08.06.19.08.3.06.18-.15.4-.26.63-.32-.22.11-.42.24-.61.39-.04.05-.06.1-.08.16-.03.06-.03.13 0 .2.07.24.54.21.74 0 .16-.18.29-.38.4-.59.1-.15.29-.39.48-.42ZM46.79 20.83c.09-.83-.53-1.58-1.37-1.67-.21-.02-.42 0-.62.06.39.21.75.47 1.06.78l-1.3-.59v.18s-.14 1.05 2.23 1.25ZM49.33 16.4c.34.13.66.31.95.54l-1.11-.37v.15s.01.86 1.94.82c0-.69-.58-1.24-1.28-1.23-.17 0-.34.04-.49.1ZM47.04 15.04c.47-.27.97-.46 1.49-.59l-1.44.93.22.12s1.39.82 2.71-1.47c0 0-2.23-1.29-2.98 1.01ZM17.01 14.66c-.27-.36-.48-.76-.62-1.19l.92 1.15.12-.12s.68-1.07-1.49-2.2c0 0-1.07 1.7 1.07 2.35ZM32.72 10.08c-.47-.25-.9-.57-1.28-.95l1.56.73v-.21s.05-1.56-2.67-1.52c0 0-.08 2.46 2.39 1.94ZM43.91 13.77s1.49-.45.82-2.53c-.88.07-1.53.84-1.46 1.71.02.23.09.46.21.66.13-.44.32-.87.58-1.26l-.34 1.47.19-.05ZM36.7 4.15a4.33 4.33 0 0 1-.14-1.39l.45 1.47.14-.14S38.23 3 36.57 1.5a1.54 1.54 0 0 0-.43 2.15c.14.21.34.38.56.5ZM34.01 3.93c.2.15.43.26.68.3-.25-.39-.44-.82-.56-1.26l.88 1.26.1-.18s.69-1.35-1.37-2.31c-.54.68-.42 1.65.27 2.18ZM21.2 6.71c.2.16.43.26.68.32-.25-.39-.43-.82-.54-1.27l.87 1.25.08-.15s.75-1.34-1.33-2.33c-.55.67-.44 1.65.24 2.19ZM14.47 6.91c.24.01.47-.03.69-.11a4.76 4.76 0 0 1-1.2-.73l1.44.58v-.21s-.21-1.47-2.48-1.21c-.05.89.64 1.64 1.54 1.69ZM14.22 10.27s-.95-.8-2.21.56a1.402 1.402 0 0 0 2.28-.21c-.38.11-.77.16-1.17.15l1.21-.4-.11-.12ZM13.6 8.81c.14-.07.27-.16.38-.27-.4.01-.79-.03-1.18-.12l1.29-.1-.06-.11s-.74-1.01-2.29 0c.34.67 1.18.95 1.86.61ZM18.79 7.07s-1.06-.73-2.15.73a1.4 1.4 0 0 0 1.97-.03c.11-.11.2-.24.26-.38-.37.14-.76.22-1.15.26l1.19-.48-.12-.1ZM23.79 13.47s.37-1.18-1.43-1.71c-.35.63-.11 1.41.53 1.75.18.1.39.15.59.16-.25-.29-.47-.61-.62-.96l.85.9.09-.13ZM18.95 10.46s-1.17-.54-1.95 1.11c.62.44 1.49.31 1.93-.31.09-.13.17-.27.21-.43-.34.2-.71.35-1.09.44l1.07-.69-.17-.13ZM14.08 16.08c.24-.01.47-.07.69-.18a4.77 4.77 0 0 1-1.27-.65l1.49.44-.05-.18s-.35-1.47-2.58-.98c.04.89.81 1.59 1.72 1.55ZM13.91 17.98c.19-.1.35-.23.49-.38-.48.04-.97 0-1.44-.09l1.56-.19-.1-.15s-.96-1.2-2.78.12a1.69 1.69 0 0 0 2.28.68ZM17.03 19.22c.14-.08.27-.18.38-.3-.37.03-.74 0-1.09-.07l1.18-.15-.07-.12s-.75-.91-2.12.1c.33.61 1.11.85 1.73.52ZM39.02 4.52l-.67 1.01.15.02s1.26 0 1.33-1.7c-.7-.17-1.41.26-1.58.95-.04.17-.05.34-.02.52.22-.3.49-.57.79-.79ZM37.46 7.98c.1.17.23.32.4.43-.06-.36-.06-.73 0-1.09l.26 1.17.13-.09s.94-.8-.28-2.1c-.61.33-.84 1.08-.51 1.68ZM41.27 5.59c-.08.11-.13.24-.17.37.36-.21.74-.37 1.15-.47l-1.12.73.11.08s1.24.56 2.1-1.15c-.69-.44-1.61-.24-2.06.43ZM28.03 6.91c.19.11.4.16.62.17-.27-.3-.49-.64-.65-1.01l.92.95.07-.14s.41-1.25-1.49-1.82c-.37.66-.13 1.48.53 1.85ZM24.96 8.52c.09.22.23.42.41.58-.01-.45.05-.9.18-1.34l.1 1.47.16-.1s1.29-.82.04-2.61c-.8.31-1.2 1.2-.89 1.99ZM18.21 1.97c.24.08.49.1.74.06-.37-.28-.69-.62-.95-.99l1.24.84.04-.17S19.44.24 17.2 0c-.27.82.18 1.7 1.01 1.97ZM18.24 6.04a4.51 4.51 0 0 1-.96-.99l1.21.87.07-.18s.16-1.47-2.08-1.7c0 0-.51 1.98 1.76 2ZM23.7 1.48l-.48 1.06h.16s1.22-.15 1-1.83c-.69-.06-1.3.45-1.36 1.13-.02.18 0 .36.07.52.16-.32.37-.62.62-.88ZM22.36 9.92c.19.06.4.08.6.05-.29-.23-.54-.5-.75-.81l.97.73v-.16s.15-1.16-1.62-1.38c-.22.65.14 1.35.8 1.57ZM34.59 6.76c.18.12.39.2.6.23-.23-.33-.41-.69-.54-1.07l.81 1.04.08-.14s.54-1.2-1.29-1.95c-.44.61-.29 1.45.33 1.88ZM42.32 13.89s.57-.93-.84-1.73c-.43.46-.4 1.17.07 1.59.13.12.29.21.47.26-.16-.3-.27-.63-.33-.96l.55.94.09-.09ZM39.63 11.35s1.11.21 1.44-1.34a1.206 1.206 0 0 0-1.65 1.1c.24-.24.52-.44.83-.6l-.74.81.13.04ZM43.36 10.23c.91 0 1.65-.71 1.66-1.61-2.25-.35-2.53 1.11-2.53 1.11l-.04.13 1.49-.51c-.37.3-.78.55-1.23.73.2.09.42.14.64.14ZM186.82 5.49c-.89 1.12-.73 2.73.36 3.67.24.24.51.46.8.63-.46 1.73.06 3.57 1.37 4.82a5.065 5.065 0 0 0 3.65 1.61c-.13 1.3.34 2.58 1.29 3.49 1.01 1.23 2.72 1.69 4.24 1.14l.36.43c1.85 1.91 4.55 2.25 6.09.72s1.27-4.31-.58-6.22c-.44-.46-.96-.85-1.53-1.15.97-1.59.66-3.62-.74-4.88-.26-.27-.54-.5-.85-.7.31-1.85-.31-3.74-1.67-5.07-1.42-1.69-3.8-2.29-5.88-1.48l-.11-.13a2.809 2.809 0 0 0-2.57-.89l-.17-.21c-1.38-1.43-3.43-1.67-4.64-.55-1.1 1.42-.91 3.43.46 4.62l.12.14Zm11.76 7.38c.2 0 .63-.28 1.01-.33.37-.03.74 0 1.1.08.62.11 1.1.61 1.17 1.22v.03c.04.07.1.13.16.17h.25s.09.22-.05.2c0 0-.19 0-.31-.04l-.07-.08c-.03.14-.08.27-.17.38.18.1.38.14.58.12.15 0 .2.2.05.21l-.03-.03c-.26.03-.52-.03-.75-.17-.07.07-.15.13-.24.19.27.23.61.39.97.44 0 0 .21.22.04.23v-.02c-.45-.07-.85-.26-1.18-.54-.1.06-.22.11-.33.16l.34.33c.13.09.27.16.42.19.09.09.2.2 0 .21l-.41-.4s-.06-.03-.08-.05l-.26-.27s-.09.04-.14.06c.01.02.02.04.04.05l.86.64c-.12-.04-.24-.1-.35-.16.04.09 0 .18-.11.14l.04.05c-.28-.15-.49-.38-.65-.65-.25.11-.49.21-.67.33-.18.16-.5-.24-.33-.35l.11-.1a5.44 5.44 0 0 0 1.77-1 .57.57 0 0 0 .13-.5c-.16-.37-.53-.61-.94-.61-.28-.05-.57-.06-.85-.04-.34.02-.58.27-.9.32-.31.05-.4-.42-.2-.43Zm-1.02 2.86c.37-.21.83-.21 1.2 0 .27.18.49.42.66.69.22.28.42.58.6.88l.16.67c.51.12.57.59.17 1.02-.25.23-.58.36-.93.35-.3.08-.63.06-.91-.08a2.53 2.53 0 0 1-1.34-1.56c-.25-.7-.35-1.53.4-1.97Zm-.3-1.1c-.02.1-.1.18-.21.19-.56-.12-1.07-.36-1.52-.68-.44.13-3.05.83-3.94-.79-.85-1.54 1.2-2.72 1.77-3.02-.12-.98.23-1.48.24-1.51 0 0 0-.01.02-.02.1-.09.25-.08.34.01h.01c.12.08.15.24.07.36-.02.05-.7 1.02.47 3.03s2.49 2.13 2.49 2.13c.15.02.26.14.27.28ZM195.2 3.94c.02-.14.22-.14.15.04-.03.09-.08.18-.11.27l.04.29c-.08-.08-.07-.18-.04-.29l-.05-.31-.06.73c-.08-.24-.06-.5.06-.73Zm-1.58.72c-.02-.12-.05-.24-.06-.37l-.05.04c.04-.15.31-.02.23.05 0 .18.02.36.09.53.12.14.25.28.39.41.02.03.03.06.03.08.15-.14.3-.28.47-.4-.02-.01-.05-.02-.07-.05-.2-.38-.27-.81-.19-1.23V3.6l.17.17c-.07.36 0 .73.16 1.05.02.04.03.07.03.1.26-.17.54-.28.85-.24a.62.62 0 0 1-.08-.24c-.06-.15.07-.27.07-.27.04-.15.17 0 .17 0-.03.07-.05.14-.07.21 0 .08.02.16.07.23.04.06.05.1.04.13.05.01.09.01.14.03.57.25.89.85.79 1.45-.04.35-.13.69-.27 1.01l-.66.78c-.1.18-.48-.06-.33-.34.15-.28.48-.41.6-.69.12-.25.2-.51.24-.78.13-.36 0-.77-.32-1a.673.673 0 0 0-.6-.07c-.61.31-1.15.73-1.61 1.23h.06c-.24.19-.52-.17-.33-.34.14-.1.29-.25.44-.4-.02 0-.05 0-.07-.03a1.62 1.62 0 0 1-.54-.91c.04-.04.12-.1.2-.02Zm-3.36-.58c.37-.2.83-.19 1.2.03.13.09.23.2.31.33.14.15.35.21.55.17.03.38.16.74.38 1.06l.43.45c.3.36.28.89-.06 1.22-.25.24-.58.37-.93.38-.32.07-.65.04-.95-.08-.64-.33-1.12-.9-1.33-1.58-.25-.7-.35-1.53.38-1.99ZM170.45 22.67c2.37-.8 4.37-1.7 6-2.69 1.63-1 2.89-2.06 3.79-3.17.9-1.11 1.44-2.2 1.62-3.27.18-1.06.02-2.05-.49-2.95-.51-.91-1.37-1.65-2.56-2.24s-2.73-.96-4.6-1.12c-1.87-.16-4.06-.03-6.56.4-.95-1.51-2.04-2.75-3.29-3.74-1.25-.98-2.51-1.7-3.79-2.14-1.28-.45-2.49-.63-3.65-.55-1.15.08-2.12.45-2.9 1.11-.78.66-1.29 1.61-1.54 2.84-.25 1.24-.1 2.77.46 4.62.55 1.84 1.57 3.99 3.04 6.44 1.48 2.45 3.55 5.21 6.24 8.29 3.12-.42 5.86-1.02 8.23-1.82ZM57.91 31.81c.51-.35.99-.67 1.45-1.02.42-.31.81-.66 1.17-1.04l-2.5-2.44c-.32.35-.66.68-1.02.99-.38.33-.74.64-1.15.93-.4.29-.74.55-1.09.76-.28.18-.58.34-.9.47v-2.37c0-.18.02-.37.06-.55l-3.57.11c.15 1.78.27 3.34.27 4.71s.03 2.56 0 3.56-.09 1.82-.17 2.44c-.05.44-.14.88-.27 1.3l3.71.15c-.03-.2-.06-.4-.06-.6v-2.68c.28.16.55.35.81.54.37.26.69.55 1.06.87l1.09.97c.35.33.63.62.85.87l2.77-2.63c-.3-.17-.67-.39-1.1-.67-.44-.27-.9-.58-1.38-.91l-1.51-1.01c-.51-.34-1-.66-1.47-.94l1.45-.85c.51-.28 1.01-.6 1.52-.95ZM61.55 28.28c-.18.29-.27.63-.26.97h-.03a1.67 1.67 0 0 0 .93 1.51c.53.25 1.15.25 1.68 0 .27-.13.49-.33.65-.57.18-.28.27-.61.25-.94.01-.34-.07-.68-.25-.97-.16-.25-.38-.45-.65-.58-.53-.27-1.16-.27-1.68 0-.27.13-.49.34-.65.58ZM64.64 35.3c-.02-.74 0-1.41.04-2.09.04-.61.12-1.22.23-1.82l-3.59.17c.08 1 .12 1.86.17 2.6s.05 1.37.05 1.91-.02.99-.05 1.35c-.03.36-.07.65-.1.89s-.07.43-.1.57c-.04.13-.06.25-.08.38l3.92-.05c-.18-.6-.3-1.22-.37-1.84-.09-.67-.09-1.35-.12-2.09ZM77.29 35.81c-.05-.73-.05-1.48-.05-2.27s.01-1.51.04-2.27.06-1.41.1-2.02c.03-.48.08-.95.15-1.43l-3.6.17c0 .05.02.19.04.41.02.22.05.46.08.73.03.26.08.51.08.73.03.23.04.36.04.4-.13-.1-.27-.18-.41-.26-.2-.11-.42-.21-.64-.28-.25-.09-.5-.17-.76-.22-.26-.06-.53-.08-.8-.09a6.68 6.68 0 0 0-2.46.43c-.67.25-1.28.63-1.79 1.12-.48.45-.85.99-1.11 1.59a4.906 4.906 0 0 0-.16 3.65c.19.59.51 1.13.94 1.59.49.5 1.07.89 1.73 1.15.78.31 1.62.47 2.47.46.51.02 1.03-.05 1.52-.2.45-.15.87-.38 1.23-.67-.02.08-.04.16-.04.24v.3c0 .09.03.19 0 .29s-.03.17-.03.24l3.81-.31c-.12-.48-.2-.96-.24-1.45-.06-.62-.08-1.29-.13-2.02Zm-4.05-.12c-.21.36-.52.66-.89.87-.42.22-.91.3-1.38.22a2.02 2.02 0 0 1-1.22-.48c-.29-.26-.51-.58-.63-.95-.14-.37-.18-.76-.13-1.15.03-.41.16-.79.37-1.14.21-.35.51-.65.87-.86.41-.24.89-.35 1.38-.32.43-.01.84.14 1.18.4.31.25.55.58.69.97.13.4.17.82.13 1.23-.03.43-.15.84-.37 1.21ZM87.08 33.76c-.4-.21-.82-.37-1.26-.46-.46-.1-.92-.19-1.38-.28-.43-.08-.86-.18-1.28-.31-.36-.1-.69-.29-.94-.56-.19-.18-.33-.42-.39-.67-.04-.19-.02-.4.08-.57.11-.17.26-.31.45-.4.21-.11.45-.17.69-.19.23-.01.46 0 .69.04.24.04.47.11.69.22.25.12.48.26.69.43.22.19.41.42.56.67l2.59-1.1a5.284 5.284 0 0 0-1.74-1.81c-.66-.42-1.39-.71-2.17-.86-.73-.14-1.49-.16-2.23-.04-.69.11-1.35.33-1.95.67-.54.29-.99.7-1.32 1.2-.31.48-.43 1.06-.34 1.62.07.59.31 1.14.69 1.6.33.4.74.72 1.21.97.46.24.94.43 1.44.55.51.13.97.25 1.38.38.35.1.68.25.99.43.23.15.34.41.3.67-.03.2-.13.38-.29.51-.17.13-.36.22-.57.26-.23.04-.46.04-.69 0-.26-.05-.51-.15-.74-.3a2.49 2.49 0 0 1-.63-.58c-.19-.27-.32-.58-.38-.9l-3.11.47c.16 1.26.87 2.38 1.94 3.1.5.33 1.05.57 1.64.73.59.15 1.2.23 1.81.24.59 0 1.18-.07 1.76-.22a5.65 5.65 0 0 0 1.53-.67c.43-.27.8-.62 1.08-1.04.28-.41.43-.89.43-1.39.04-.51-.08-1.03-.33-1.48-.2-.39-.5-.71-.88-.94ZM103.51 29.7a4.84 4.84 0 0 0-1.69-1.35c-.77-.36-1.62-.53-2.47-.5-.83 0-1.64.18-2.39.52-.67.3-1.26.74-1.75 1.28-.47.53-.85 1.14-1.1 1.8a6.797 6.797 0 0 0-.24 4.17c.17.66.47 1.29.88 1.84.41.55.94 1.01 1.55 1.35.68.37 1.45.58 2.24.6 1.65.14 3.27-.46 4.41-1.63.52-.53.93-1.16 1.2-1.84.28-.69.45-1.41.51-2.15.05-.73-.02-1.46-.21-2.17-.17-.69-.49-1.34-.94-1.9Zm-2.4 5.56c-.2.44-.51.83-.91 1.13-.41.3-.93.44-1.44.4-.36 0-.71-.11-.99-.32a2.3 2.3 0 0 1-.61-.78c-.16-.34-.27-.7-.32-1.07-.05-.4-.05-.81 0-1.22.04-.4.13-.81.26-1.19.11-.36.29-.71.53-1.01.21-.28.49-.51.8-.67.33-.16.7-.22 1.06-.17.45.04.87.26 1.16.6.33.36.56.78.69 1.24.14.5.19 1.03.15 1.55-.03.52-.17 1.04-.39 1.51ZM116.92 34.79c-.12-.81-.3-1.61-.52-2.4-.22-.74-.54-1.45-.96-2.1-.35-.58-.82-1.08-1.38-1.47-.6-.38-1.3-.57-2.01-.55-.39 0-.77.03-1.15.11-.3.06-.59.15-.88.26-.23.09-.45.21-.65.34-.19.13-.35.25-.48.36v-.84l-3.39.13c.06.36.12.81.17 1.38s.06 1.18.1 1.85c.05.67.05 1.36.05 2.09.02.73.02 1.43 0 2.1s-.06 1.29-.12 1.86c-.05.47-.13.94-.23 1.41l3.21.28c.1-1.48.22-2.74.37-3.78.1-.86.27-1.72.51-2.56.14-.53.39-1.03.74-1.46.26-.3.63-.48 1.04-.51.31-.02.6.1.81.31.27.27.49.59.64.94.2.46.36.93.47 1.41.14.57.24 1.15.3 1.74.07.61.1 1.24.12 1.89s0 1.27-.03 1.88l3.52-.15c.04-.61.04-1.31 0-2.1-.03-.81-.11-1.61-.22-2.41ZM128.01 30.43c.02-.87.05-1.81.1-2.82l-3.51.27c.06.3.1.69.15 1.16.05.47.1.98.1 1.55a16.7 16.7 0 0 1-1.43-.08c-.31-.03-.62-.08-.93-.14l.16 3.61c.35-.1.71-.18 1.07-.24.39-.07.78-.12 1.17-.16 0 .57.03 1.14 0 1.72-.03.58-.06 1.13-.11 1.66s-.1 1.01-.17 1.44c-.05.35-.12.7-.22 1.04l3.97-.17c-.13-.48-.2-.98-.2-1.47-.09-.96-.13-2.39-.13-4.28.45.02.88.05 1.29.11s.79.11 1.13.19l.17-3.69-1.38.17-1.22.13ZM142.89 35.17c-.14-.71-.34-1.4-.59-2.08a7.35 7.35 0 0 0-.99-1.8c-.4-.52-.89-.97-1.46-1.31-.6-.35-1.28-.56-1.97-.61-.35-.03-.71 0-1.05.08-.33.08-.65.19-.96.33-.28.13-.54.29-.78.48-.19.14-.35.31-.49.5 0-.03-.01-.14 0-.29.01-.16.04-.34.05-.57s.04-.45.07-.71.05-.49.07-.71.05-.4.05-.57v-.28l-3.5.14c.06.36.12.83.17 1.44s.07 1.28.11 2.02.04 1.5.04 2.3-.01 1.57-.04 2.3c-.03.73-.07 1.4-.13 2.02-.04.49-.12.97-.24 1.45l3.32.27c.08-.99.15-1.84.23-2.57.08-.73.17-1.34.28-1.85.08-.43.19-.85.34-1.26.1-.28.25-.53.43-.76.14-.17.32-.31.53-.39.21-.08.42-.12.64-.12.43 0 .85.18 1.12.52.38.44.66.94.84 1.48.25.71.41 1.45.49 2.19.1.87.12 1.75.05 2.62l3.67-.17c.02-.63 0-1.26-.04-1.98s-.13-1.43-.27-2.14ZM150.35 36.45c-.44.34-1.01.48-1.57.38-.62-.05-1.18-.35-1.54-.83a2.97 2.97 0 0 1-.5-1.83l7.36-.08c.09-.78.04-1.57-.17-2.33-.2-.7-.53-1.35-.98-1.93-.45-.54-1.02-.98-1.66-1.28-.64-.32-1.35-.49-2.07-.48-.85 0-1.7.17-2.48.52-.68.32-1.29.78-1.77 1.35-.47.55-.83 1.19-1.05 1.87-.23.69-.35 1.41-.35 2.14 0 .72.12 1.43.36 2.11.23.67.59 1.28 1.08 1.8.49.53 1.11.95 1.79 1.22.8.31 1.66.43 2.51.36.64-.03 1.27-.14 1.88-.32.54-.16 1.03-.43 1.46-.78.43-.38.78-.83 1.02-1.35.29-.61.47-1.26.55-1.93l-2.98-.05c-.13.56-.44 1.07-.88 1.45Zm-2.33-5.58c.33-.25.74-.41 1.17-.44.41-.02.81.11 1.13.35.39.32.67.75.79 1.23h-4c.19-.45.51-.84.91-1.14ZM168.06 27.73c-.15.36-.31.78-.5 1.28s-.39.98-.62 1.48c-.23.5-.46.95-.69 1.39-.18.35-.4.67-.65.97a5 5 0 0 1-.86-.98c-.3-.42-.59-.88-.85-1.35s-.52-.95-.74-1.42c-.22-.47-.41-.88-.57-1.23l-3.26 1.2c.57.9 1.08 1.69 1.54 2.36l1.21 1.82c.36.54.68 1.05.95 1.49s.52.9.76 1.35v3.18c0 .21-.03.41-.06.62l3.66-.25c-.06-.26-.1-.53-.12-.79-.05-.29-.05-.58-.05-.88V36.3c.32-.6.62-1.16.9-1.67s.57-1.05.88-1.6c.31-.54.7-1.13 1.05-1.76.36-.63.83-1.36 1.38-2.19l-3.35-1.34ZM182.2 35.83c-.05-.71-.05-1.44-.05-2.2s.02-1.49.04-2.2c.02-.71.06-1.35.12-1.94.03-.48.1-.95.19-1.42l-3.34.06c0 .09-.03.18 0 .28s.03.19.03.29c-.13-.1-.27-.18-.41-.26-.2-.11-.41-.21-.63-.28-.25-.09-.5-.17-.76-.22-.26-.06-.53-.09-.8-.09-.85-.02-1.68.15-2.46.49-.69.31-1.3.75-1.81 1.29a5.85 5.85 0 0 0-1.14 1.84c-.26.68-.41 1.39-.45 2.11-.03.71.06 1.42.27 2.11.2.67.53 1.3.98 1.84.47.56 1.05 1.02 1.72 1.35.77.36 1.61.54 2.46.53.52.02 1.03-.05 1.52-.2.45-.15.86-.37 1.22-.67-.03.13-.05.25-.09.38s-.06.25-.1.36l3.9-.05a7.86 7.86 0 0 1-.28-1.43c-.07-.6-.09-1.24-.14-1.95Zm-3.6-2.11c-.03.54-.17 1.07-.39 1.57-.2.45-.51.84-.9 1.14s-.89.43-1.38.35a1.74 1.74 0 0 1-1.19-.58c-.3-.36-.52-.78-.63-1.24a4.32 4.32 0 0 1-.09-1.52c.04-.52.17-1.02.39-1.5.2-.44.5-.83.89-1.13.39-.3.88-.47 1.38-.45.45 0 .88.18 1.17.52.31.36.53.79.64 1.25.12.52.16 1.06.11 1.6ZM193.24 30.09c-.26-.36-.56-.69-.9-.98-.33-.27-.71-.49-1.12-.63-.44-.16-.91-.23-1.38-.22-.39 0-.77.03-1.15.11-.3.07-.59.15-.88.26-.23.09-.45.21-.65.34-.19.13-.35.25-.48.36v-1.55l-3.3.3c.04.36.07.83.1 1.44s.03 1.28.03 2.02 0 1.5-.03 2.29-.06 1.55-.1 2.29c-.04.73-.1 1.4-.17 2.02-.04.49-.12.97-.22 1.45l3.61-.28c-.06-1.26-.04-2.53.06-3.79.06-.84.22-1.66.48-2.46.15-.52.45-.98.85-1.35.33-.27.75-.43 1.19-.44.36-.01.7.14.92.4.31.35.54.75.69 1.19l3.15-1.55c-.2-.42-.43-.84-.69-1.23ZM205 35.79c-.05-.73-.05-1.48-.05-2.27s.02-1.51.04-2.27c.02-.75.05-1.41.1-2.02.03-.48.08-.95.16-1.43l-3.6.17c0 .05 0 .19.03.41.03.22.06.46.08.73s.08.51.08.73c.03.23.04.36.04.4-.13-.1-.27-.18-.41-.26-.2-.11-.42-.2-.63-.28-.25-.09-.51-.17-.77-.22-.26-.06-.53-.08-.79-.09a6.68 6.68 0 0 0-2.46.43c-.67.25-1.28.63-1.79 1.12-.48.45-.86.99-1.12 1.59-.25.58-.4 1.19-.43 1.82-.03.62.07 1.24.28 1.83.21.6.54 1.15.99 1.61.49.5 1.08.89 1.73 1.15.79.31 1.63.47 2.48.46.51.02 1.03-.05 1.52-.2.45-.15.87-.38 1.23-.67-.03.08-.04.16-.04.24v.83l3.72-.33a7.98 7.98 0 0 1-.24-1.45c-.06-.62-.08-1.29-.13-2.02Zm-3.96-.1c-.21.36-.52.66-.89.87-.42.22-.91.3-1.38.23-.44-.03-.86-.2-1.19-.48-.29-.26-.51-.58-.63-.94-.27-.76-.18-1.6.24-2.29.21-.35.51-.65.87-.86.42-.24.9-.35 1.38-.32.43 0 .85.14 1.18.4.3.26.53.59.65.96.13.4.17.82.14 1.24-.03.42-.15.83-.37 1.2Z" style="fill:#5b5b5b"/></svg>