<?xml version="1.0" encoding="UTF-8"?>
<svg id="kids_on_the_yard_icon_logo_2023" xmlns="http://www.w3.org/2000/svg" viewBox="0 0 100 100">
  <defs>
    <style>
      .cls-1 {
        fill: #fff;
      }

      .cls-1, .cls-2 {
        stroke: #000;
        stroke-miterlimit: 10;
        stroke-width: 3px;
      }

      .cls-2 {
        fill: red;
      }
    </style>
  </defs>
  <rect class="cls-2" x="3" y="3" width="94" height="94" rx="12" ry="12"/>
  <path class="cls-1" d="m61.95,80.78c-1.16-1.22-2.64-2.65-4.44-4.3l-5.71-4.8c-1.95-1.57-3.61-3-5.56-4.3-1.34-.99-2.75-1.89-4.22-2.7v13.29c.04.99.14,1.98.32,2.96l-19.43-.77c.7-2.1,1.17-4.25,1.41-6.43.43-3.06.72-7.09.9-12.06.18-4.96,0-10.86,0-17.62s-.65-14.52-1.41-23.31l18.7-.57c-.19.9-.28,1.81-.29,2.73v11.72c1.64-.64,3.21-1.42,4.69-2.33,1.81-1.07,3.61-2.33,5.71-3.76,2.09-1.43,4.01-2.96,5.99-4.6,1.87-1.55,3.65-3.18,5.34-4.9l13.11,12.09c-1.87,1.86-3.92,3.58-6.1,5.13-2.42,1.73-4.91,3.33-7.58,5.06-2.67,1.73-5.31,3.33-7.98,4.7l-7.58,4.23c2.46,1.4,5.02,2.96,7.69,4.66l7.91,5c2.53,1.64,4.93,3.14,7.22,4.5,2.27,1.4,4.22,2.46,5.78,3.33l-14.48,13.02Z"/>
</svg>